<svg xmlns="http://www.w3.org/2000/svg" xmlns:xlink="http://www.w3.org/1999/xlink" viewBox="0 0 2913.91 2896.47"><defs><style>.cls-1{isolation:isolate;}.cls-2{fill:#f4f7fa;}.cls-3{fill:#97a6b7;}.cls-4{fill:#d8dee8;}.cls-10,.cls-5,.cls-6{fill:#fff;}.cls-5{opacity:0.74;}.cls-7{fill:url(#linear-gradient);}.cls-8{fill:url(#linear-gradient-2);}.cls-9{fill:url(#linear-gradient-3);}.cls-10,.cls-20,.cls-26,.cls-37,.cls-43{opacity:0.3;}.cls-10{mix-blend-mode:soft-light;}.cls-11{fill:url(#linear-gradient-4);}.cls-12{fill:url(#linear-gradient-5);}.cls-13{fill:url(#linear-gradient-6);}.cls-14{fill:url(#linear-gradient-7);}.cls-15{fill:url(#linear-gradient-8);}.cls-16{fill:#26264f;}.cls-17{fill:url(#linear-gradient-9);}.cls-18{fill:url(#linear-gradient-10);}.cls-19{fill:url(#linear-gradient-11);}.cls-20,.cls-26,.cls-37,.cls-43{mix-blend-mode:multiply;}.cls-20{fill:url(#linear-gradient-12);}.cls-21{fill:url(#linear-gradient-13);}.cls-22{fill:url(#linear-gradient-14);}.cls-23{fill:url(#linear-gradient-15);}.cls-24{fill:url(#linear-gradient-16);}.cls-25{fill:url(#linear-gradient-17);}.cls-26{fill:url(#linear-gradient-18);}.cls-27{fill:url(#linear-gradient-19);}.cls-28{fill:url(#linear-gradient-20);}.cls-29{fill:url(#linear-gradient-21);}.cls-30{fill:url(#linear-gradient-22);}.cls-31{fill:url(#linear-gradient-23);}.cls-32{fill:url(#linear-gradient-24);}.cls-33{fill:url(#linear-gradient-25);}.cls-34{fill:url(#linear-gradient-26);}.cls-35{fill:url(#linear-gradient-27);}.cls-36{fill:url(#linear-gradient-28);}.cls-37{fill:url(#linear-gradient-29);}.cls-38{fill:url(#linear-gradient-30);}.cls-39{fill:url(#linear-gradient-31);}.cls-40{fill:url(#linear-gradient-32);}.cls-41{fill:url(#linear-gradient-33);}.cls-42{fill:url(#linear-gradient-34);}.cls-43{fill:url(#linear-gradient-35);}</style><linearGradient id="linear-gradient" x1="4176.5" y1="2234.42" x2="798.24" y2="831.59" gradientTransform="translate(14.04 339.43) rotate(-7.9)" gradientUnits="userSpaceOnUse"><stop offset="0.1" stop-color="#311944"/><stop offset="0.27" stop-color="#371b47"/><stop offset="0.48" stop-color="#462150"/><stop offset="0.51" stop-color="#4a2252"/><stop offset="0.68" stop-color="#5c295c"/><stop offset="1" stop-color="#893976"/></linearGradient><linearGradient id="linear-gradient-2" x1="4013.51" y1="2163.9" x2="635.16" y2="761.03" gradientTransform="translate(14.04 339.43) rotate(-7.9)" gradientUnits="userSpaceOnUse"><stop offset="0.1" stop-color="#311944"/><stop offset="0.27" stop-color="#371b47"/><stop offset="0.48" stop-color="#462150"/><stop offset="0.72" stop-color="#612a5f"/><stop offset="0.97" stop-color="#853774"/><stop offset="1" stop-color="#893976"/></linearGradient><linearGradient id="linear-gradient-3" x1="-397.84" y1="54.08" x2="2052.8" y2="1588.6" gradientTransform="translate(14.04 339.43) rotate(-7.9)" gradientUnits="userSpaceOnUse"><stop offset="0" stop-color="#aa80f9"/><stop offset="1" stop-color="#6165d7"/></linearGradient><linearGradient id="linear-gradient-4" x1="4010.37" y1="2138.31" x2="476.17" y2="670.71" gradientTransform="matrix(0.98, -0.18, 0.18, 0.98, 1209.95, 324)" xlink:href="#linear-gradient-2"/><linearGradient id="linear-gradient-5" x1="4012.08" y1="2134.02" x2="477.96" y2="666.46" gradientTransform="matrix(0.98, -0.18, 0.18, 0.98, 1209.95, 324)" xlink:href="#linear-gradient-2"/><linearGradient id="linear-gradient-6" x1="465.17" y1="563.35" x2="3028.98" y2="2168.73" gradientTransform="matrix(0.98, -0.18, 0.18, 0.98, 1209.95, 324)" xlink:href="#linear-gradient-3"/><linearGradient id="linear-gradient-7" x1="2719.03" y1="1424.38" x2="2756.76" y2="1692.55" gradientTransform="matrix(1, 0.07, -0.07, 1, 113.96, -225.72)" gradientUnits="userSpaceOnUse"><stop offset="0" stop-color="#ffc444"/><stop offset="1" stop-color="#f36f56"/></linearGradient><linearGradient id="linear-gradient-8" x1="1771.28" y1="1557.21" x2="1809.81" y2="1831.04" xlink:href="#linear-gradient-7"/><linearGradient id="linear-gradient-9" x1="2546.11" y1="2778.98" x2="2604.33" y2="2952.26" xlink:href="#linear-gradient-7"/><linearGradient id="linear-gradient-10" x1="2471.54" y1="2804.66" x2="2529.33" y2="2976.67" xlink:href="#linear-gradient-7"/><linearGradient id="linear-gradient-11" x1="2706.78" y1="2690.12" x2="2433.42" y2="2381.9" gradientTransform="matrix(1, 0.07, -0.07, 1, 113.96, -225.72)" gradientUnits="userSpaceOnUse"><stop offset="0" stop-color="#444b8c"/><stop offset="1" stop-color="#3e4177"/></linearGradient><linearGradient id="linear-gradient-12" x1="2706.78" y1="2690.12" x2="2433.42" y2="2381.9" xlink:href="#linear-gradient-11"/><linearGradient id="linear-gradient-13" x1="2363.02" y1="2514.43" x2="1959.39" y2="2439.21" xlink:href="#linear-gradient-11"/><linearGradient id="linear-gradient-14" x1="2169.78" y1="1265.52" x2="2421.14" y2="2188.38" gradientTransform="matrix(1, 0.07, -0.07, 1, 113.96, -225.72)" gradientUnits="userSpaceOnUse"><stop offset="0" stop-color="#ff9085"/><stop offset="1" stop-color="#fb6fbb"/></linearGradient><linearGradient id="linear-gradient-15" x1="2284.68" y1="1621.54" x2="2330.09" y2="1755.48" xlink:href="#linear-gradient-7"/><linearGradient id="linear-gradient-16" x1="2342.23" y1="3286.5" x2="2387.64" y2="3420.43" gradientTransform="matrix(1, 0.07, -0.07, 1, 627.36, -190.87)" xlink:href="#linear-gradient-7"/><linearGradient id="linear-gradient-17" x1="3321.46" y1="4097.3" x2="3438.42" y2="4285.81" gradientTransform="matrix(1, 0.07, -0.07, 1, 627.36, -190.87)" xlink:href="#linear-gradient-7"/><linearGradient id="linear-gradient-18" x1="1992.63" y1="1313.76" x2="2243.98" y2="2236.63" xlink:href="#linear-gradient-14"/><linearGradient id="linear-gradient-19" x1="3630.97" y1="1447" x2="3909.29" y2="1223.47" gradientTransform="matrix(-0.93, 0.37, 0.37, 0.93, 4042.2, -630.87)" xlink:href="#linear-gradient-7"/><linearGradient id="linear-gradient-20" x1="3055.89" y1="3623.39" x2="1308.11" y2="2195.9" gradientTransform="matrix(1, 0, 0, 1, 0, 0)" xlink:href="#linear-gradient-2"/><linearGradient id="linear-gradient-21" x1="3082.94" y1="3590.23" x2="1335.19" y2="2162.76" gradientTransform="matrix(1, 0, 0, 1, 0, 0)" xlink:href="#linear-gradient-2"/><linearGradient id="linear-gradient-22" x1="-314.69" y1="1161.65" x2="2676.08" y2="3034.38" gradientTransform="matrix(1, 0, 0, 1, 0, 0)" xlink:href="#linear-gradient-3"/><linearGradient id="linear-gradient-23" x1="3935.72" y1="3161.31" x2="3996.2" y2="2829.75" gradientTransform="matrix(-1, 0, 0, 1, 4280.95, 0)" gradientUnits="userSpaceOnUse"><stop offset="0" stop-color="#311944"/><stop offset="1" stop-color="#893976"/></linearGradient><linearGradient id="linear-gradient-24" x1="3995.53" y1="2903.98" x2="4010.19" y2="3046.16" gradientTransform="matrix(-1, 0, 0, 1, 4280.95, 0)" xlink:href="#linear-gradient-7"/><linearGradient id="linear-gradient-25" x1="4203.49" y1="3087.35" x2="4242.93" y2="2871.12" xlink:href="#linear-gradient-23"/><linearGradient id="linear-gradient-26" x1="4251.01" y1="2882.1" x2="4265.63" y2="3023.82" gradientTransform="matrix(-1, 0, 0, 1, 4280.95, 0)" xlink:href="#linear-gradient-7"/><linearGradient id="linear-gradient-27" x1="3548.82" y1="1821.36" x2="3491.84" y2="1676.65" gradientTransform="matrix(-1, 0, 0, 1, 4280.95, 0)" xlink:href="#linear-gradient-7"/><linearGradient id="linear-gradient-28" x1="3670.79" y1="2751.74" x2="4275.66" y2="2019.76" gradientTransform="matrix(-1, 0, 0, 1, 4280.95, 0)" gradientUnits="userSpaceOnUse"><stop offset="0" stop-color="#444b8c"/><stop offset="1" stop-color="#26264f"/></linearGradient><linearGradient id="linear-gradient-29" x1="3670.79" y1="2751.74" x2="4275.66" y2="2019.75" xlink:href="#linear-gradient-28"/><linearGradient id="linear-gradient-30" x1="3976.42" y1="2560.85" x2="4270.09" y2="2164.18" xlink:href="#linear-gradient-28"/><linearGradient id="linear-gradient-31" x1="222.86" y1="379" x2="175.26" y2="258.11" gradientTransform="matrix(-0.94, 0.33, 0.33, 0.94, 873.54, 1319.77)" xlink:href="#linear-gradient-23"/><linearGradient id="linear-gradient-32" x1="1703.82" y1="252.35" x2="1771.19" y2="121.37" gradientTransform="matrix(-0.67, 0.74, 0.74, 0.67, 1844.52, 255.21)" xlink:href="#linear-gradient-7"/><linearGradient id="linear-gradient-33" x1="2877.2" y1="1586.78" x2="3137.99" y2="1784.02" gradientTransform="matrix(-1, 0, 0, 1, 4280.95, 0)" gradientUnits="userSpaceOnUse"><stop offset="0" stop-color="#ffc444"/><stop offset="0.81" stop-color="#f57f53"/><stop offset="1" stop-color="#f36f56"/></linearGradient><linearGradient id="linear-gradient-34" x1="3474.27" y1="1852.73" x2="3620.37" y2="2472.21" gradientTransform="matrix(-1, 0, 0, 1, 4280.95, 0)" xlink:href="#linear-gradient-7"/><linearGradient id="linear-gradient-35" x1="3439.39" y1="1860.96" x2="3585.5" y2="2480.44" gradientTransform="matrix(-1, 0, 0, 1, 4280.95, 0)" xlink:href="#linear-gradient-7"/></defs><title>Asset 3</title><g class="cls-1"><g id="Layer_2" data-name="Layer 2"><g id="Illustration"><path class="cls-2" d="M1550.78,2733.5c-231.27,46.15-700,139.68-1013.54-84.15C-31.84,2243.12,8.26,861.58,725.75,278c62-50.45,385.6-303.54,828.67-275.92C2322.94,50,3004.12,914.55,2870.33,1607.43c-78.3,405.51-420.84,675-561.86,786C2250.35,2439.15,1976.37,2648.57,1550.78,2733.5Z"/><path class="cls-3" d="M2397.51,177.07,589.17,66.79c-41.65-2.14-79.14,45.77-79.14,86V2607.51c0,55.79,54.06,67,95.71,62.54l1791.77-192.9c32.73-3.52,59.15-35.1,59.15-70.54V244.28C2456.66,208.84,2430.24,178.75,2397.51,177.07Z"/><path class="cls-4" d="M2427.25,157.57l-1811.91-94c-41.65-2.16-75.57,28.95-75.57,69.49V2607c0,40.54,33.92,69.73,75.57,65.21l1811.91-196.59c32.73-3.55,59.15-35.37,59.15-71.09V225.31C2486.4,189.59,2460,159.27,2427.25,157.57Z"/><path class="cls-5" d="M615.34,2638.66c-22.47,2.39-40.79-13.43-40.79-35.28V134.75c0-21.85,18.32-38.71,40.79-37.59l1811.91,90.23c17.69.88,32.06,17.32,32.06,36.64V2407.35c0,19.32-14.36,36.57-32.06,38.46Z"/><polygon class="cls-6" points="2310.47 2387.25 760.73 2544.66 760.73 267.13 2310.47 328.66 2310.47 2387.25"/><path class="cls-4" d="M1103.17,1360.33v131.23l-129.67,4.61V1363.69Zm14.49-14.87L959,1349.57v161.62l158.65-5.65Z"/><polygon class="cls-4" points="2170.98 1468.06 1176.09 1503.46 1176.09 1343.94 2170.98 1318.15 2170.98 1468.06"/><path class="cls-4" d="M1103.17,1593.79V1725l-129.67,6.44V1599Zm14.49-15.08L959,1585.06v161.62l158.65-7.88Z"/><polygon class="cls-4" points="2170.98 1686.49 1176.09 1735.9 1176.09 1576.38 2170.98 1536.58 2170.98 1686.49"/><path class="cls-4" d="M1103.17,1827.26v131.19l-129.67,8.26V1834.27Zm14.49-15.3L959,1820.54v161.62l158.65-10.11Z"/><polygon class="cls-4" points="2170.98 1904.92 1176.09 1968.33 1176.09 1808.81 2170.98 1755.01 2170.98 1904.92"/><path class="cls-4" d="M1103.17,2060.73V2191.9L973.51,2202V2069.57Zm14.49-15.51L959,2056v161.62l158.65-12.35Z"/><polygon class="cls-4" points="2170.98 2123.34 1176.09 2200.76 1176.09 2041.24 2170.98 1973.43 2170.98 2123.34"/><polygon class="cls-4" points="1589.9 1189.02 959.01 1199.73 959.01 445.44 1589.9 463.17 1589.9 1189.02"/><polygon class="cls-4" points="2170.98 571.66 1688.98 560.97 1688.98 465.96 2170.98 479.51 2170.98 571.66"/><polygon class="cls-4" points="2170.98 776.43 1688.98 772.11 1688.98 724.6 2170.98 730.36 2170.98 776.43"/><polygon class="cls-4" points="2170.98 852.37 1688.98 850.4 1688.98 802.9 2170.98 806.3 2170.98 852.37"/><polygon class="cls-4" points="2170.98 928.31 1688.98 928.7 1688.98 881.19 2170.98 882.24 2170.98 928.31"/><path class="cls-7" d="M1284.84,1243.1c30.31,10.44,64-7.69,75.35-40.51s-4.09-67.89-34.4-78.33c-1.57-.54-3.16-1-4.74-1.35a362.59,362.59,0,0,0,4.78-52.81c1.62-.23,3.25-.48,4.88-.86,31.9-7.37,53.42-40.61,48.06-74.25S1343.2,940,1311.3,947.41c-1.67.39-3.29.88-4.9,1.4a332.51,332.51,0,0,0-20.61-46.94c1.36-1.08,2.72-2.18,4-3.39,24.95-23.2,28.48-62.64,7.88-88.09s-57.51-27.28-82.46-4.08c-1.28,1.19-2.46,2.45-3.63,3.72a294.64,294.64,0,0,0-40.49-28.48c.7-1.62,1.39-3.26,2-5,11.31-32.82,27-69.13-3.47-79.1-70.48-23.06-95,8.46-106.28,41.28-.59,1.7-1.06,3.41-1.5,5.12a294.82,294.82,0,0,0-49.43-2.51c-.14-1.72-.29-3.44-.57-5.16-5.36-33.64,2.11-53.29-30.4-49.42-70.89,8.44-90.49,42.44-85.13,76.09.28,1.76.67,3.46,1.08,5.15a332.49,332.49,0,0,0-45.15,24.28c-.94-1.4-1.92-2.79-3-4.12-20.59-25.45-57.51-27.28-82.46-4.08s-28.48,62.64-7.88,88.09c1.05,1.3,2.18,2.5,3.31,3.68a362.52,362.52,0,0,0-28.77,44.55c-1.49-.67-3-1.32-4.56-1.86-30.31-10.44-64,7.69-75.35,40.51s4.09,67.89,34.4,78.33c1.57.54,3.16,1,4.74,1.35a362.59,362.59,0,0,0-4.78,52.81c-1.62.23-3.25.48-4.88.86-31.9,7.37-53.42,40.61-48.06,74.25s35.57,54.94,67.47,47.58c1.67-.38,3.29-.88,4.9-1.4a332.5,332.5,0,0,0,20.61,46.94c-1.36,1.08-2.72,2.18-4,3.39-24.95,23.2-28.48,62.64-7.88,88.09s77.8,30.66,102.74,7.47c1.28-1.19-17.82-5.83-16.66-7.1a294.53,294.53,0,0,0,40.48,28.48c-.7,1.62-1.38,3.26-2,5-11.31,32.82,4.09,67.89,34.4,78.33s64-7.69,75.35-40.51c.59-1.7,1.06-3.41,1.5-5.12a294.66,294.66,0,0,0,49.43,2.51c.14,1.72.29,3.44.57,5.16,5.36,33.64,35.57,54.94,67.47,47.58s53.42-40.61,48.06-74.25c-.28-1.76-.67-3.46-1.08-5.15a332.26,332.26,0,0,0,45.15-24.28c.94,1.4,1.92,2.79,3,4.12,20.59,25.45,57.51,27.28,82.46,4.08s28.48-62.64,7.88-88.09c-1.06-1.3-2.18-2.5-3.32-3.68a362.54,362.54,0,0,0,28.77-44.55C1281.76,1241.92,1283.27,1242.56,1284.84,1243.1Zm-352.32,53.49c-110-37.92-166-165.25-124.91-284.4s163.55-185,273.59-147.09,166,165.25,124.91,284.4S1042.56,1334.51,932.52,1296.59Z"/><path class="cls-8" d="M1330.71,1069.24c31.9-7.37,53.42-40.61,48.06-74.25S1343.2,940,1311.3,947.41c-1.67.38-3.29.88-4.9,1.4a332.65,332.65,0,0,0-20.61-46.94c1.36-1.07,2.72-2.18,4-3.39,24.95-23.2,52.64-74.73,29.55-97.93-43.83-44-79.17-17.44-104.12,5.76-1.28,1.19-2.46,2.44-3.63,3.71a294.62,294.62,0,0,0-40.48-28.48c.7-1.62,1.39-3.26,2-5a64.93,64.93,0,0,0-3.42-51.22q-30.25,76-59.23,152.55c90.35,48.71,132.9,163.5,95.66,271.58-31.56,91.59-111.23,151.62-196.38,157.3-2.41,10.27-4.74,20.59-7.42,30.81-7.29,27.73-16.14,55.13-25,82.49q12,.58,24,.19c.13,1.72.29,3.44.57,5.16,5.36,33.64,29.82,59.46,87.93,48.23,32.15-6.21,33-41.25,27.59-74.9-.28-1.76-.67-3.46-1.08-5.15a332.42,332.42,0,0,0,45.15-24.28c.94,1.4,1.92,2.79,3,4.12,20.59,25.46,80.29,29.19,105.24,6s5.69-64.55-14.9-90c-1.06-1.3-2.18-2.5-3.32-3.68a362.36,362.36,0,0,0,28.77-44.55c1.49.67,3,1.32,4.56,1.86,30.31,10.45,64-7.69,75.35-40.51s-4.09-67.89-34.4-78.33c-1.57-.54-3.15-1-4.74-1.35a362.61,362.61,0,0,0,4.78-52.81C1327.45,1069.87,1329.08,1069.62,1330.71,1069.24Z"/><path class="cls-9" d="M1361.65,1068.46c31.9-7.36,53.4-40.59,48-74.22s-35.54-55-67.47-47.58a46.51,46.51,0,0,0-4.89,1.41,334,334,0,0,0-20.6-47c1.35-1.07,2.7-2.17,4-3.38,24.94-23.21,28.46-62.66,7.88-88.11s-57.52-27.27-82.46-4.09c-1.3,1.2-2.47,2.46-3.65,3.73a293.23,293.23,0,0,0-40.46-28.47c.69-1.63,1.38-3.26,1.95-5,11.31-32.84-4.09-67.9-34.39-78.32s-64,7.69-75.35,40.49c-.57,1.69-1.06,3.4-1.49,5.11a297.23,297.23,0,0,0-49.43-2.5c-.16-1.7-.33-3.43-.57-5.15-5.37-33.64-35.57-54.93-67.47-47.58s-53.43,40.59-48.07,74.23c.28,1.79.67,3.49,1.08,5.15a333.89,333.89,0,0,0-45.16,24.3c-.93-1.41-1.93-2.81-3-4.12a54,54,0,0,0-51-19.65,59.32,59.32,0,0,0-31.42,15.55c-24.94,23.21-28.46,62.62-7.88,88.11,1.06,1.28,2.17,2.48,3.33,3.67a359.75,359.75,0,0,0-28.78,44.56,45.39,45.39,0,0,0-4.57-1.85c-30.31-10.46-64,7.69-75.36,40.49s4.09,67.9,34.39,78.32a44.93,44.93,0,0,0,4.76,1.35,359.61,359.61,0,0,0-4.77,52.82c-1.65.23-3.26.49-4.89.86-31.9,7.36-53.43,40.59-48.06,74.27s35.57,54.94,67.47,47.58c1.66-.41,3.28-.89,4.89-1.41A329.22,329.22,0,0,0,758.87,1259c-1.38,1.11-2.73,2.21-4,3.41-24.95,23.18-28.47,62.62-7.89,88.07s57.52,27.31,82.46,4.09c1.26-1.2,2.48-2.43,3.62-3.72a294,294,0,0,0,40.5,28.5c-.69,1.6-1.38,3.23-2,5-11.28,32.8,4.12,67.86,34.43,78.32s64-7.69,75.35-40.53c.57-1.69,1-3.4,1.49-5.11a292.77,292.77,0,0,0,49.43,2.5c.13,1.74.29,3.43.57,5.15,5.37,33.67,35.58,55,67.47,47.61s53.43-40.63,48.06-74.27c-.28-1.75-.66-3.46-1.08-5.15a335.36,335.36,0,0,0,45.17-24.27,48.64,48.64,0,0,0,3,4.12c20.58,25.45,57.52,27.27,82.46,4.06,19.54-18.15,25.94-46.29,17.92-69.82a59.26,59.26,0,0,0-10-18.25,47.5,47.5,0,0,0-3.33-3.67,370.32,370.32,0,0,0,28.78-44.56c1.48.67,3,1.31,4.54,1.86,30.31,10.42,64.07-7.69,75.35-40.53s-4.08-67.87-34.39-78.32c-1.58-.55-3.13-1-4.72-1.36a364.9,364.9,0,0,0,4.77-52.82A45.75,45.75,0,0,0,1361.65,1068.46ZM1237,1148.74c-27.84,80.82-93.18,137.11-166.63,153.13a197.25,197.25,0,0,1-106.94-6c-110.06-37.94-166-165.24-124.93-284.4,18.35-53.28,53-95.87,95.49-123.31,52.56-34,117.26-44.78,178.11-23.78C1222.19,902.24,1278.1,1029.58,1237,1148.74Z"/><path class="cls-10" d="M1277.88,1376.79c-24.94,23.21-61.88,21.39-82.46-4.06a48.64,48.64,0,0,1-3-4.12,335.36,335.36,0,0,1-45.17,24.27c.42,1.7.8,3.4,1.08,5.15,5.37,33.64-16.17,66.87-48.06,74.27s-62.1-13.94-67.47-47.61c-.27-1.72-.44-3.41-.57-5.15a292.77,292.77,0,0,1-49.43-2.5c-.46,1.71-.91,3.42-1.49,5.11-11.31,32.84-45,51-75.35,40.53s-45.71-45.52-34.43-78.32c.6-1.73,1.29-3.36,2-5a294,294,0,0,1-40.5-28.5c-1.14,1.29-2.36,2.52-3.62,3.72-24.94,23.21-61.88,21.39-82.46-4.09s-17.06-64.89,7.89-88.07c1.3-1.2,2.64-2.31,4-3.41a329.22,329.22,0,0,1-20.63-46.91c-1.61.52-3.23,1-4.89,1.41-31.9,7.36-62.1-13.94-67.47-47.58S682,1099,713.95,1091.68c1.63-.37,3.24-.63,4.89-.86a359.61,359.61,0,0,1,4.77-52.82,44.93,44.93,0,0,1-4.76-1.35c-30.31-10.42-45.71-45.52-34.39-78.32s45-50.95,75.36-40.49a45.39,45.39,0,0,1,4.57,1.85,359.75,359.75,0,0,1,28.78-44.56c-1.15-1.19-2.27-2.39-3.33-3.67-20.58-25.49-17.06-64.89,7.88-88.11a59.32,59.32,0,0,1,31.42-15.55c43.33,29.94,85.33,70,104.89,120.33-42.53,27.45-77.14,70-95.49,123.31-41.06,119.16,14.87,246.46,124.93,284.4a197.25,197.25,0,0,0,106.94,6c54.07,30.93,127.66,38.27,225.39,5.1C1303.82,1330.5,1297.42,1358.64,1277.88,1376.79Z"/><path class="cls-11" d="M2710.75,1257.59c54.24,16.06,112.31-18.54,129.7-77.27S2828,1061,2773.72,1044.9c-2.81-.83-5.64-1.45-8.46-2a639.39,639.39,0,0,0,4.33-93.47c2.84-.53,5.69-1.1,8.54-1.9,55.67-15.46,91-75.73,79-134.62s-67-94.1-122.64-78.65c-2.91.81-5.73,1.81-8.52,2.86a586.7,586.7,0,0,0-40-81.14c2.32-2,4.62-4.05,6.83-6.29,42.18-42.83,45.34-112.64,7.06-155.91s-103.5-43.63-145.68-.8c-2.16,2.2-4.15,4.5-6.11,6.83a519.94,519.94,0,0,0-73.58-47.06c1.11-2.91,2.19-5.85,3.09-8.89,17.39-58.73,42.23-124-12.26-139.17-126-35.18-166.78,22.28-184.17,81-.9,3-1.6,6.09-2.25,9.14a520.14,520.14,0,0,0-87.34-.58c-.37-3-.78-6-1.4-9.05-12.06-58.89-.41-94.11-57.42-84.76-124.33,20.39-156.23,81.85-144.17,140.74.63,3.08,1.44,6.05,2.3,9a586.47,586.47,0,0,0-77.71,46.3c-1.77-2.4-3.59-4.77-5.6-7-38.28-43.27-103.5-43.63-145.68-.79s-45.34,112.64-7.06,155.91c2,2.22,4,4.25,6.13,6.24a639.59,639.59,0,0,0-47.25,80.77c-2.68-1.06-5.38-2.09-8.19-2.92-54.24-16.06-112.31,18.53-129.7,77.27s12.49,119.36,66.73,135.42c2.81.83,5.63,1.45,8.46,2a639.41,639.41,0,0,0-4.33,93.47c-2.84.53-5.69,1.1-8.54,1.89-55.67,15.46-91,75.73-79,134.63s67,94.1,122.64,78.64c2.91-.81,5.73-1.81,8.52-2.85a586.49,586.49,0,0,0,40,81.15c-2.32,2-4.62,4.05-6.83,6.29-42.18,42.83-45.34,112.64-7.06,155.91s139.52,48,181.7,5.19c2.16-2.2-31.87-8.89-29.91-11.22a519.85,519.85,0,0,0,73.58,47.06c-1.11,2.91-2.19,5.85-3.09,8.89-17.39,58.73,12.49,119.36,66.73,135.42s112.31-18.54,129.7-77.27c.9-3,1.6-6.09,2.25-9.14a519.85,519.85,0,0,0,87.34.58c.37,3,.79,6,1.4,9.06,12.06,58.89,67,94.1,122.64,78.64s91-75.73,79-134.62c-.63-3.08-1.44-6.05-2.3-9a586.54,586.54,0,0,0,77.71-46.3c1.77,2.4,3.6,4.77,5.6,7,38.28,43.27,103.5,43.63,145.68.8s45.34-112.64,7.06-155.91c-2-2.21-4-4.24-6.13-6.23a639.52,639.52,0,0,0,47.25-80.77C2705.23,1255.73,2707.94,1256.76,2710.75,1257.59ZM2093.8,1379.22c-196.94-58.31-305.4-278.44-242.27-491.68s274-338.84,470.9-280.54,305.41,278.44,242.27,491.68S2290.74,1437.53,2093.8,1379.22Z"/><path class="cls-12" d="M2778.13,947.52c55.67-15.46,91-75.73,79-134.63s-67-94.1-122.64-78.64c-2.91.81-5.73,1.81-8.52,2.86a586.45,586.45,0,0,0-40-81.14c2.32-2,4.62-4.05,6.83-6.29,42.18-42.83,87-135.82,44.49-174.94-80.69-74.24-140.93-24.6-183.11,18.24-2.16,2.2-4.15,4.5-6.11,6.83a520.06,520.06,0,0,0-73.58-47.06c1.12-2.91,2.19-5.85,3.09-8.89,9.46-32,4.84-64.44-10-90Q2420.11,490.19,2375,627.33c163.06,78.85,247,277.93,189.72,471.35-48.53,163.91-184.33,275.92-334,292.55-3.45,18.3-6.75,36.67-10.7,54.9-10.7,49.45-24.17,98.44-37.69,147.37q21.26.09,42.37-1.53c.37,3,.78,6,1.4,9.06,12.06,58.89,57.19,102.51,158.76,78.2,56.19-13.45,54.89-75.28,42.83-134.18-.63-3.08-1.44-6.05-2.3-9a586.8,586.8,0,0,0,77.71-46.3c1.77,2.4,3.6,4.77,5.6,7,38.28,43.27,143.81,45.23,186,2.4s5-114.24-33.25-157.51c-2-2.22-4-4.25-6.13-6.24a639.37,639.37,0,0,0,47.25-80.76c2.68,1.06,5.38,2.09,8.19,2.92,54.24,16.06,112.31-18.54,129.7-77.27S2828,1061,2773.72,1044.9c-2.81-.83-5.64-1.45-8.46-2a639.45,639.45,0,0,0,4.33-93.47C2772.43,948.89,2775.27,948.31,2778.13,947.52Z"/><path class="cls-13" d="M2828.18,1041.16c-2.82-.84-5.61-1.45-8.45-2a639,639,0,0,0,4.34-93.44c2.84-.54,5.69-1.12,8.51-1.93,55.69-15.43,91-75.72,79-134.6s-67-94.13-122.63-78.66c-2.9.84-5.74,1.83-8.54,2.86a587.22,587.22,0,0,0-39.95-81.15c2.31-2,4.59-4,6.81-6.28,42.19-42.83,45.35-112.65,7-155.9s-103.47-43.64-145.66-.81c-2.18,2.2-4.18,4.52-6.1,6.85a518.53,518.53,0,0,0-73.61-47.1c1.14-2.91,2.21-5.82,3.1-8.86,17.39-58.74-12.49-119.36-66.73-135.42S2353,323.22,2335.58,381.92c-.9,3.07-1.6,6.13-2.23,9.15a522,522,0,0,0-87.36-.57c-.38-3-.76-6-1.41-9-12.05-58.92-67-94.13-122.63-78.66s-91,75.72-79,134.64c.64,3.07,1.47,6,2.31,9-1.32.65-2.64,1.31-4,2a578.89,578.89,0,0,0-73.73,44.26c-1.81-2.41-3.62-4.78-5.63-7-38.26-43.28-103.51-43.64-145.65-.81s-45.35,112.65-7.08,155.93c2,2.2,4,4.21,6.13,6.24a637.73,637.73,0,0,0-47.24,80.74c-2.69-1.05-5.38-2.07-8.2-2.91-54.24-16.06-112.32,18.52-129.71,77.27s12.49,119.36,66.73,135.42c2.82.84,5.65,1.45,8.45,2a639.51,639.51,0,0,0-4.3,93.48c-2.84.54-5.69,1.12-8.55,1.89-55.65,15.47-91,75.76-79,134.64s67,94.09,122.63,78.62c2.94-.8,5.74-1.79,8.54-2.82a586.81,586.81,0,0,0,40,81.12c-2.31,2-4.63,4.08-6.85,6.31-42.15,42.83-45.34,112.62-7,155.9s103.5,43.64,145.69.81c2.14-2.2,4.14-4.52,6.1-6.85a516.06,516.06,0,0,0,73.58,47.06c-1.11,2.91-2.18,5.86-3.11,8.9-17.39,58.74,12.48,119.36,66.73,135.42s112.32-18.52,129.71-77.27c.89-3,1.6-6.09,2.26-9.11a521.67,521.67,0,0,0,87.32.57c.38,3,.8,6,1.41,9,12.06,58.88,67,94.13,122.63,78.66,51.84-14.4,86-67.63,80.78-122.44a114,114,0,0,0-1.81-12.2c-.64-3.07-1.43-6-2.31-9a588,588,0,0,0,77.72-46.29c1.77,2.37,3.58,4.74,5.59,7,38.3,43.28,103.5,43.64,145.69.81s45.35-112.65,7-155.93c-1.94-2.2-4-4.22-6.13-6.24a642.2,642.2,0,0,0,47.27-80.74c2.65,1.05,5.38,2.07,8.2,2.91,54.21,16.05,112.28-18.53,129.67-77.27S2882.43,1057.21,2828.18,1041.16Zm-209,53.76c-55.82,188.49-227,308.5-402,293.57a346,346,0,0,1-68.93-13C1951.33,1317.15,1842.85,1097,1906,883.77c36.41-123,121.93-216.78,225.59-263,76.09-34,162-42.24,245.33-17.54C2573.82,661.58,2682.29,881.68,2619.16,1094.92Z"/><path class="cls-10" d="M2403.18,1675.93c-55.65,15.47-110.57-19.78-122.63-78.66-.61-3-1-6-1.41-9a521.67,521.67,0,0,1-87.32-.57c-.66,3-1.37,6.07-2.26,9.11-17.39,58.74-75.47,93.33-129.71,77.27s-84.12-76.67-66.73-135.42c.93-3,2-6,3.11-8.9a516.06,516.06,0,0,1-73.58-47.06c-2,2.33-4,4.65-6.1,6.85-42.19,42.83-107.43,42.46-145.69-.81s-35.11-113.07,7-155.9c2.22-2.23,4.53-4.31,6.85-6.31a586.81,586.81,0,0,1-40-81.12c-2.8,1-5.61,2-8.54,2.82-55.65,15.47-110.57-19.74-122.63-78.62s23.31-119.18,79-134.64c2.86-.77,5.7-1.35,8.55-1.89a639.51,639.51,0,0,1,4.3-93.48c-2.8-.54-5.64-1.15-8.45-2-54.24-16.06-84.12-76.67-66.73-135.42s75.47-93.33,129.71-77.27c2.82.84,5.51,1.86,8.2,2.91a637.73,637.73,0,0,1,47.24-80.74c-2.1-2-4.16-4-6.13-6.24-38.26-43.28-35.1-113.1,7.08-155.93s107.39-42.47,145.65.81c2,2.24,3.82,4.61,5.63,7a578.89,578.89,0,0,1,73.73-44.26c40.47,51.1,73.86,109,90.24,172.32-103.66,46.21-189.18,140-225.59,263-63.14,213.27,45.34,433.38,242.29,491.71a346,346,0,0,0,68.93,13c63,84.27,151.73,145.35,266.76,165C2489.21,1608.3,2455,1661.53,2403.18,1675.93Z"/><path class="cls-14" d="M2707.53,1402.84l3.57-52.55s-6.79-11.73-8.87-39.78,4.38-16.54,7.13-4.75a19.09,19.09,0,0,0,4.91,8.59c5.73,6.11,13.57-.77,15.31-9l13.67-28.27s14.92,19.65-3.18,70.27c-5.67,15.85-3.74,55.14-3.74,55.14Z"/><path class="cls-15" d="M1784.38,1382.2l-9.77-52.07s14.06-18.77,9.31-39.23-1.56-13.07-7.36-.5-14-9.94-20.3-30.36-12.22,9.91-11.6,28.2.57,29.14,10.52,43.12,4.57,61,4.57,61Z"/><path class="cls-16" d="M2440.08,2841.8c1.19-11.25,28.2-7.14,45.89-4.22s25,10.59,27.37,17.46-.88,23.19-16.86,15.17C2483.37,2863.62,2439,2851.74,2440.08,2841.8Z"/><path class="cls-17" d="M2475.78,2800.34l9.7,44.54s12.08,9.56,16.54,5.52l-1.3-50.66Z"/><polygon class="cls-18" points="2388.07 2768.43 2428.76 2789.56 2420.28 2810.31 2379.03 2796.53 2388.07 2768.43"/><path class="cls-16" d="M2380.09,2850.62s27.45,9.13,40.93-6.55c8.67-10.08,16.51-27.66,21-38.93a12.49,12.49,0,0,0-6.21-15.9c-8.63-4.14-20.42-8.77-25.76-6.22-8.93,4.25-3,36.95-7.38,45.07S2379.71,2840.33,2380.09,2850.62Z"/><path class="cls-19" d="M2364.88,2110.12A2338.95,2338.95,0,0,0,2470,2816.5a46.12,46.12,0,0,0,39.81,2.7c10.4-51.76,16.93-95.6,21.11-128.21,11.06-86.11,16.41-130.23,8.13-182.48-7.77-49-16.91-45.86-24.82-100-7-48.15-4.78-84.66-1.17-138.11a1210.36,1210.36,0,0,1,18.6-144.48Z"/><path class="cls-20" d="M2477.94,2781.18c-8.68-36.51,14.32-51.36,14.85-96.91.65-55.65-33.38-59.63-39.94-122.7-5.27-50.68,16.14-53.58,14.69-114.85-1.53-65.12-26.14-80-18.16-118.46,4.43-21.4,19-50,65.37-79.1a1212.57,1212.57,0,0,1,17-123.23l-166.82-15.8A2338.95,2338.95,0,0,0,2470,2816.5a46.32,46.32,0,0,0,18.27,5.77,45.14,45.14,0,0,0,11.88-.46C2490.34,2810.89,2481.81,2797.47,2477.94,2781.18Z"/><path class="cls-21" d="M2230.18,2083a998.88,998.88,0,0,1-21.73,104.79c-26.07,98.8-50.36,129.36-60.64,194.42-12,75.86,4.78,137.35,11.16,160.74,43.53,159.66,187.19,242.36,225.31,262.81l16.25-42.29a396.15,396.15,0,0,1-34.1-65.34c-20.32-49.77-20-78.25-32.85-126.77-23.22-87.54-46.1-76.92-48.44-120.85-3.71-69.62,53.9-93.71,113.11-222.31a716.24,716.24,0,0,0,33.51-87.37Z"/><path class="cls-22" d="M2699.85,1381.21l43-4c16.11,26.26,62.06,108.93,44.78,214.05-4.09,24.91-20.09,107.41-94.92,168.83-53.58,44-110.57,55.07-136.58,58.47-8.41,123.22-11.35,201.09-10.27,247.88.13,5.64,1.3,53-9.18,113.25-3.19,18.36-4.85,27.64-7.73,32.58-39.91,68.46-237.36-1.34-290.13-28.53-13.72-7.07-27.5-16.54-32.62-32-6.58-19.86,2.17-36.87,6.29-52,10.1-37.11-10.34-67-50.23-143.06-16.87-32.15-41.26-80.35-69.34-142.68-38,8.34-127,21.84-210.13-25-122.12-68.77-182.82-240.41-133.84-418.62l39.19-8.37a381.7,381.7,0,0,0,49.51,133.87c18.36,30.27,33.65,55.48,62.1,70.93,44.67,24.25,87.07,5.58,147.92-5.13,95.89-16.88,174.16-2.84,269.23,14.22,103.87,18.64,131.09,42.08,208.59,32.82,34.47-4.12,77.66-9.83,114.83-41.29C2713.45,1505.6,2701.69,1396.24,2699.85,1381.21Z"/><path class="cls-23" d="M2299.5,1492.37s-8,24.69.1,36.55,34.66,57,44.13,59.77c5.39,1.57,19,4.58,29.65,6.88,5.62,1.21,6.3,9.11.88,11-11,3.93-30.29,7.33-62.77,4.77-46.94-3.7-83.52-24.14-99.36-34.51a2.5,2.5,0,0,1,1.76-4.57l21,3a29,29,0,0,0,33.15-30l-.52-11.84Z"/><path class="cls-24" d="M2276.68,1541.62c-2.8-1.79-26.22-6.26-28.61-19.19-3.25-17.54,13.67-37.47,15.83-40.72,9-13.59,11.2-15.36,15.12-17.5l5.42-2.7.63-.18c3.4-.87,14.67-.2,16.9.49,7.13,2.21,12.19,32.54,6.18,74.22q.24,2.43.44,4.91C2308.94,1545.24,2276.37,1543.1,2276.68,1541.62Z"/><path class="cls-16" d="M2260.1,1457.19c-1.37,5.05,11.49,16.17,17,21a21.56,21.56,0,0,1,4.23,5.56,6.63,6.63,0,0,1,.6,1.6c2.1,8.43-11.77,16.88-9.59,20.77,1.58,2.82,10.74.07,11.58,2.46s-7,6.05-6.06,8.74c.67,2,5.35.65,7.93,3.9,1.28,1.61.76,2.76,1.85,7.45a41.57,41.57,0,0,0,2.33,7.23c3.79,8,16.24,12,19,9.13.76-.79.24-1.55,1.19-4.34a22.82,22.82,0,0,1,3-5.47c3-4.13,9.65-6.68,16.46-10.71,12.62-7.46,16.5-14.44,17.69-16.81.13-.27.25-.51.36-.74a13,13,0,0,0,.54-1.21c3.11-8.14-6.47-23.3-6.47-23.3-7.7-12-17.88-20.35-26.11-25.79a122.33,122.33,0,0,0-37.09-4.24C2271.27,1452.68,2261.18,1453.19,2260.1,1457.19Z"/><path class="cls-16" d="M2252.29,1500s9.19,12.68,23.38-.84l6.39,2.37s-18.33,34-21.74,33.77-13.22-3.18-13.22-3.18a8.42,8.42,0,0,1-4.33-9.86C2244.83,1515.15,2249.64,1504.91,2252.29,1500Z"/><path class="cls-25" d="M2278.56,1503.54c3.58-4.08,8.79.53,8.31,6.19s-6.49,11-11.7,9.44S2273.75,1509,2278.56,1503.54Z"/><path class="cls-26" d="M2476.82,2188.06c-69.81,19.4-146.89-21.12-163.48-70.4-12.26-36.43,21.37-68.1,1.68-106.08-19-36.58-58.58-23.45-82.76-60.78-26.36-40.68,10.08-72.66-12.11-126.33-16.7-40.37-60.64-78.67-106.17-81.68-54.11-3.58-77.7,44.86-123.51,31.61-23.93-6.92-22.37-21.55-54.68-47.84-56.07-45.64-96.75-30.88-143.26-63.51-13.67-9.59-28.67-23.89-42-46.15,24,75.56,70.16,137.2,132.29,172.19,83.11,46.8,172.17,33.3,210.13,25,28.08,62.33,52.47,110.53,69.34,142.68,39.89,76,60.33,105.95,50.23,143.06-4.11,15.11-12.87,32.12-6.29,52,5.12,15.46,18.9,24.93,32.62,32,52.77,27.18,250.22,97,290.13,28.53,2.88-4.93,4.53-14.21,7.73-32.58,2-11.44,3.56-22.4,4.79-32.72C2526.23,2164,2505.23,2180.16,2476.82,2188.06Z"/><path class="cls-27" d="M1107.58,1822.61s-219.21,161.66-375,63.76l-21.48,201.94s308.59,86.4,398.23-228.92Z"/><path class="cls-28" d="M1640,2198.83c39.82-3.56,71.41-40.14,70.58-81.69-.59-29.54-17.4-53.66-41.32-63.86a10.66,10.66,0,0,0-1-.39,66.83,66.83,0,0,0-31.24-4.59c-2.09.2-4.11.51-6.17.87a402.64,402.64,0,0,0-17-60.18q2.79-1.6,5.46-3.44c34-23.84,44.92-70.94,24.32-105.18a65.84,65.84,0,0,0-31.12-27.09,68.49,68.49,0,0,0-51.68-.36,77.67,77.67,0,0,0-16.21,8.7c-1.74,1.23-3.36,2.53-5,3.88a361.17,361.17,0,0,0-44.17-41.24c1.11-1.82,2.21-3.68,3.2-5.65,18.31-36,42-75.25,13.52-93.68a6.9,6.9,0,0,0-.91-.55c-1.14-.67-2.33-1.34-3.52-1.94-81.34-39.74-116.25-5.73-135.43,32-.36.71-.67,1.42-1,2.14q-.89,1.9-1.66,3.8a361.15,361.15,0,0,0-59.35-11.31c.12-2.1.24-4.19.2-6.33-.67-34,7.47-55.91-11.51-62.91a42.12,42.12,0,0,0-12.77-3c-.63,0-1.27-.08-1.9-.08h-3.64c-86.08,0-115.14,36.85-114.31,78.25,0,2.17.24,4.59.43,6.72-10.64,3-21.16,6.6-31.51,10.52,0,0-.08,0-.12,0-9.13,3.44-18.11,7.28-27,11.39-.91-1.86-1.86-3.64-2.93-5.46a65.76,65.76,0,0,0-31.12-27,67.64,67.64,0,0,0-42.47-3.24,74.26,74.26,0,0,0-25.43,11.59c-34,23.84-44.92,70.94-24.32,105.14,1.07,1.74,2.21,3.4,3.4,5a436.42,436.42,0,0,0-37.8,43.18c-1.5,1.94-3,3.88-4.43,5.85-1.7-1.07-3.4-2.1-5.22-3a43.46,43.46,0,0,0-4.15-1.9c-34.12-14.51-75.33,1.94-93.75,38.24-19.18,37.76-6.44,82.76,28.47,100.48,1.78.91,3.64,1.66,5.5,2.41a442.71,442.71,0,0,0-14.67,63c-2,0-4,0-6,.24-39.82,3.56-71.41,40.1-70.58,81.69.4,19.69,8,37,20.13,49.31,13.48,13.72,32.5,22.36,53.46,20.5,1.74-.16,3.52.22,5.26.22h.08c.28,0,.55-1.09.83-1.13,0,.16.08-.21.08,0s0-.16,0-.12A409.7,409.7,0,0,0,879.3,2328s0,.06,0,.1c-1.82,1.07-3.64,2.14-5.42,3.37a81.63,81.63,0,0,0-34.16,56.85,74.31,74.31,0,0,0,9.84,47.48c16,26.49,60.42,43.69,95.5,35.78h.08c8.11,0,15.7-2.81,22.3-6.41.71.71,1.38,1.7,2.1,2.45a2.31,2.31,0,0,0,.28.32c5.26,5.1,10.68,10.12,16.29,14.95.28.28.55.52.83.75q5.28,4.57,10.79,8.9s0,.08-.08.12c-1.07,1.82-2.17,3.72-3.12,5.61a82.88,82.88,0,0,0-7.71,23,78.56,78.56,0,0,0,1.27,33.45,72.22,72.22,0,0,0,9.77,21.79,64.48,64.48,0,0,0,9.21,11,67.94,67.94,0,0,0,15.9,11.82c13.17,6.72,27.64,6.68,41.56,6.68h.08c22.89-4,44.33-19.53,56.23-43,1-1.94,1.86-4.78,2.69-6.76,10,2.81,20.13,6.25,30.29,6.25h0c1.82,0,3.64,0,5.46,4h.08c.16,0,.36-.83.55-.83s.4-.38.55-.34c1.38.24,2.81.25,4.23.44,1.19.2,2.41.28,3.6.44,4.82.75,9.19,1.29,14.06,1.8-.16,2.06-.69,3.78-.69,5.83v.43c0,.5.53.94.56,1.39s.26.77.3,1.14.12.75.16,1.15c.12,1.82.38,3.6.62,5.34,0,.55.15,1.07.23,1.62,3.91,24.67,19.51,44.33,40.63,53.26.79.36,1.63.67,2.5,1,1.19.44,2.42.87,3.68,1.27a5.52,5.52,0,0,0,1.15.36,68.38,68.38,0,0,0,24.75,2.33q2.73-.24,5.34-.71c.47-.08,1-.16,1.46-.28,36.54-6.84,64.53-41.56,63.74-80.71,0-1.46-.12-2.88-.24-4.31,0-.43-.08-.91-.12-1.34,0-.24,0-.47-.08-.75A402.52,402.52,0,0,0,1385,2533.2c.91,1.86,1.86,3.72,2.93,5.5q.71,1.19,1.54,2.37a62.42,62.42,0,0,0,5.85,7.67l.08.08a65.17,65.17,0,0,0,40,21.51,66.48,66.48,0,0,0,21.11-.28,73.46,73.46,0,0,0,30.41-12.58c32.46-22.74,43.85-66.63,27-100.36-.43-.87-.87-1.74-1.38-2.61s-.83-1.5-1.26-2.21c-1.07-1.74-2.21-3.4-3.4-5a446.88,446.88,0,0,0,42.23-49c1.7,1.07,3.4,2.1,5.22,3a65.55,65.55,0,0,0,27.88,7.08,64.67,64.67,0,0,0,13.8-.91c22.89-3.87,44.29-19,56.23-42.51,19.14-37.76,6.44-82.72-28.47-100.44-1.78-.91-3.64-1.7-5.49-2.45a441.93,441.93,0,0,0,14.67-63C1635.93,2199,1637.95,2199,1640,2198.83ZM953.6,2451.5l1.31,1.42C953.83,2452.25,953.28,2451.74,953.6,2451.5Zm166.91-44.68c-126.69-64.33-172.92-227.64-103.28-364.77,35.59-70.07,94.5-119.73,160.54-143,42.43-14.91,87.78-18.94,131.75-10.44a238.1,238.1,0,0,1,63.11,21.59,235.48,235.48,0,0,1,35.55,22.18c1.07.75,2.14,1.58,3.2,2.41,4.66,3.6,9.13,7.39,13.48,11.31,1.78,1.62,3.52,3.24,5.26,4.94.28.24.55.51.83.79q2.73,2.61,5.34,5.34a6.48,6.48,0,0,1,.71.75c1.66,1.7,3.28,3.4,4.86,5.18.4.44.79.87,1.19,1.34,1.58,1.74,3.09,3.48,4.55,5.26a6.53,6.53,0,0,1,.83,1c1.5,1.74,2.93,3.52,4.31,5.34a238.63,238.63,0,0,1,16.49,23.65c1.19,1.86,2.29,3.8,3.4,5.69.32.51.59,1,.87,1.54,1,1.66,1.9,3.32,2.77,5,.51.87,1,1.78,1.46,2.69.83,1.58,1.66,3.16,2.41,4.75q4.51,9,8.3,18.39c1,2.37,1.9,4.78,2.81,7.2.79,2.17,1.58,4.39,2.33,6.6.59,1.62,1.11,3.24,1.62,4.86.36,1.11.71,2.21,1,3.32.43,1.3.79,2.57,1.15,3.84s.75,2.57,1.07,3.84c.47,1.5.87,3,1.23,4.55q2,7.83,3.56,15.78c.55,2.93,1.07,5.81,1.54,8.74s.87,5.61,1.22,8.46c0,.36.08.71.12,1.11q.41,3,.71,6c.16,1.42.28,2.81.4,4.23.12,1.15.2,2.29.28,3.48.16,1.74.28,3.52.36,5.3,2.81,49.51-7.32,101.31-32,149.82a299.41,299.41,0,0,1-56.23,77.3c-2.33,2.29-4.67,4.55-7,6.76s-4.82,4.35-7.28,6.49c-1.35,1.15-2.69,2.33-4.07,3.44-1.11.95-2.26,1.86-3.4,2.77q-3.74,3-7.59,5.93a279.3,279.3,0,0,1-71.21,39c-4.11,1.5-8.22,2.93-12.38,4.23s-8.5,2.57-12.81,3.68c-.08,0-.16,0-.24.08-2.53.63-5.1,1.27-7.67,1.82s-5.26,1.19-7.91,1.66a253.13,253.13,0,0,1-57,4.59c-2.61-.08-5.18-.2-7.75-.43-.4,0-.83,0-1.23-.08A238.2,238.2,0,0,1,1120.5,2406.82Z"/><path class="cls-29" d="M1634,2199a441.93,441.93,0,0,1-14.67,63c1.86.75,3.72,1.54,5.49,2.45,34.92,17.71,47.61,62.67,28.47,100.44-11.94,23.49-33.33,38.63-56.23,42.51a64.67,64.67,0,0,1-13.8.91,65.55,65.55,0,0,1-27.88-7.08c-1.82-.91-3.52-1.94-5.22-3a446.88,446.88,0,0,1-42.23,49c1.19,1.58,2.33,3.24,3.4,5,.43.71.87,1.46,1.26,2.21s1,1.7,1.5,2.57c19.22,34.24,32.62,83.75.12,106.53-9.85,6.88-22.78,10.56-36.73,11.51a124.7,124.7,0,0,1-42.31-4.78c-15.58-4.51-28-11.94-39.9-21.67v-2h.59c-2.41,0-4.51-3.93-6.33-6.58-.55-.79-1.07-1.1-1.54-1.89-1.07-1.78-2-3.4-2.93-5.25a403.11,403.11,0,0,1-58.64,21.91c0,.28,0,.57.08.81,0,.43.67.94.71,1.37.12,1.07.83,2.13.83,3.47v.87c0,41.28-7.47,84.15-47.1,84.15h-.12c-19.81,1.11-36.1-.67-49.27-4.78a5.5,5.5,0,0,1-1.15-.36c-1.26-.4-2.49-.83-3.68-1.27-.87-.32-1.7-.63-2.49-1-25.27-10.36-37.37-30.13-40.61-53.26-.08-.55-.16-1.07-.2-1.62-.24-2.06-.44-4.11-.55-6.21a.69.69,0,0,0,0-.28c-.12-1.07-.67-1.82-.71-3,0-2.14-.4-3.76-.4-5.89v0c-4-.47-9.13-1.11-14-1.82-1.19-.16-2.13-.36-3.28-.55-1.42-.2-2.73.48-4.11.24-.32-.08-.63.71-.95.71h-.08c-1.82-4-3.64-4-5.46-4h0c15.3-31.63,31.28-62.66,44.76-95,4.94-11.86,10.76-23.64,14.71-35.58,0,0,0,.1,0,.06a67.49,67.49,0,0,0,7.08.47,5.49,5.49,0,0,0,.75.07,251.85,251.85,0,0,0,56.9-4.49c2.65-.51,5.26-1.06,7.91-1.65s5.14-1.18,7.67-1.81c.08,0,.16,0,.24-.08q6.46-1.66,12.81-3.68c4.15-1.31,8.27-2.69,12.38-4.23a276.65,276.65,0,0,0,71.37-39c2.57-1.94,5-3.92,7.51-5.93,1.15-.91,2.25-1.82,3.32-2.77,1.38-1.11,2.73-2.29,4.07-3.44,2.45-2.14,4.86-4.27,7.28-6.49s4.71-4.47,7-6.76a299.41,299.41,0,0,0,56.23-77.3c24.63-48.52,34.76-100.32,32-149.82-.08-1.78-.2-3.56-.36-5.3-.08-1.19-.16-2.33-.28-3.48-.12-1.42-.24-2.81-.4-4.23q-.3-3-.71-6c0-.4-.08-.75-.12-1.11-.36-2.85-.75-5.65-1.22-8.46s-1-5.81-1.54-8.74q-1.54-7.95-3.56-15.78c-.36-1.5-.75-3-1.23-4.55-.32-1.27-.67-2.53-1.07-3.84s-.71-2.53-1.15-3.84c-.32-1.11-.67-2.21-1-3.32-.52-1.62-1-3.24-1.62-4.86-.75-2.21-1.54-4.43-2.33-6.6-.91-2.41-1.82-4.82-2.81-7.2q-3.79-9.37-8.3-18.39c-.75-1.58-1.58-3.16-2.41-4.75-.47-.91-.95-1.82-1.46-2.69-.87-1.7-1.78-3.36-2.77-5-.28-.51-.55-1-.87-1.54-1.11-1.9-2.21-3.84-3.4-5.69a238.63,238.63,0,0,0-16.49-23.65c-1.38-1.82-2.81-3.6-4.31-5.34a6.53,6.53,0,0,0-.83-1c-1.46-1.78-3-3.52-4.55-5.26-.39-.47-.79-.91-1.19-1.34-1.58-1.78-3.2-3.48-4.86-5.18a6.48,6.48,0,0,0-.71-.75q-2.61-2.73-5.34-5.34c-.28-.28-.55-.55-.83-.79-1.74-1.7-3.48-3.32-5.26-4.94-4.35-3.91-8.82-7.71-13.48-11.31-1.07-.83-2.14-1.66-3.2-2.41-.79-.63-1.54-1.23-2.33-1.78,2.61-4.74,5.22-9.53,7.83-14.27q44-80.49,89.36-160.18a79.26,79.26,0,0,1-4.47,62.48c-1,2-2.09,3.83-3.2,5.65a361.17,361.17,0,0,1,44.17,41.24c1.62-1.34,3.24-2.65,5-3.87,4.75-3.32,9.77-6.72,15-9.89,32.19-19.61,72.64-31.75,111.86,20.4,24,31.91-18.11,89.56-52.16,113.41q-2.67,1.84-5.46,3.44a402.64,402.64,0,0,1,17,60.18c2.06-.36,4.07-.71,6.17-.87a66.83,66.83,0,0,1,31.24,4.59,10.66,10.66,0,0,1,1,.39c23.92,10.2,40.73,34.32,41.32,63.86.83,41.56-30.76,78.13-70.58,81.69C1637.95,2199,1635.93,2199,1634,2199Z"/><path class="cls-30" d="M1677.49,2203.06c39.82-3.52,71.41-40.1,70.54-81.65s-33.77-72.4-73.55-68.84a46.85,46.85,0,0,0-5.26.71c-.32,0-.59.12-.91.16,0-.2-.08-.36-.12-.55a408.6,408.6,0,0,0-16.92-59.67c1.86-1.07,3.68-2.18,5.46-3.4,34-23.84,44.92-70.94,24.32-105.18a67.61,67.61,0,0,0-9.69-12.5c-15.38-15.78-37.29-22.5-59-18.86a74.46,74.46,0,0,0-30.37,12.61c-1.74,1.19-3.36,2.53-5,3.88-5.22-5.77-10.68-11.43-16.29-16.84a16.88,16.88,0,0,0-1.23-1.19q-12.69-12.22-26.61-23.21c1.11-1.82,2.21-3.68,3.2-5.65,18.35-36.1,7.51-78.85-24-97.95a6.9,6.9,0,0,0-.91-.55c-1.14-.67-2.33-1.34-3.52-1.94-34.88-17.71-78.73-1.46-97.91,36.3-1,2-1.82,4-2.65,5.93a355.44,355.44,0,0,0-35.86-8.07c-7.83-1.34-15.66-2.45-23.49-3.24.12-2.1.24-4.23.2-6.33-.67-32.66-21-59.27-49-67.18-4.11-1.23-8.38-2.65-12.77-3-.63,0-1.27-.08-1.9-.08h-.2c-1.15,0-2.29.55-3.44.55-2.05,0-4.15.36-6.25.55-39.78,3.52-71.37,40.25-70.54,81.81,0,2.17.2,4.39.44,6.48a402.81,402.81,0,0,0-58.64,21.83c-.91-1.86-1.86-3.68-2.93-5.46a66.41,66.41,0,0,0-7.47-10.12l-.12-.12c-15.46-17.4-38.36-25-61.05-21.11a72,72,0,0,0-24.83,9.05c-1.86,1.07-3.72,2.25-5.54,3.52-34,23.88-44.92,70.94-24.32,105.18,1.07,1.74,2.21,3.4,3.4,5a443.3,443.3,0,0,0-42.27,49c-1.66-1-3.4-2.06-5.18-3a65.56,65.56,0,0,0-27.88-7.08,64.82,64.82,0,0,0-13.8.91c-22.89,3.88-44.33,19.06-56.23,42.51C858.22,1994,871,2039,905.83,2056.76c1.82.91,3.68,1.66,5.54,2.41a442,442,0,0,0-14.67,63c-2,0-4,0-6,.24-39.78,3.52-71.37,40.1-70.54,81.69.59,29.5,17.32,53.58,41.24,63.78,0,0,0,.81.08.81.36.16.67,1.17,1,1.17h0c9.53,4,20,4.8,31.2,3.82a54.22,54.22,0,0,0,6.13-1.26,406.9,406.9,0,0,0,17,60c-1.82,1.07-3.64,2.08-5.42,3.31-34,23.88-45,70.06-24.32,104.3,12.85,21.31,34.92,31.47,58,31.47h.08c8.15,0,16.37-.87,24.4-4a.71.71,0,0,0,.28-.08,74.15,74.15,0,0,0,16.25-8.26c1.78-1.23,3.4-2.37,5-3.72a359.26,359.26,0,0,0,44.17,41.32c-1.14,1.82-2.21,3.8-3.2,5.73-19.18,37.76-6.44,82.76,28.43,100.47,1.31.67,2.69,1.31,4,1.9,0,0,0,0,.08,0,34.12,14.51,75.33-1.94,93.75-38.24.36-.71.71-1.42,1-2.14q.89-1.9,1.66-3.8a357.36,357.36,0,0,0,59.31,11.31c-.12,2.14-.2,4.23-.16,6.37.59,29.54,17.4,52.79,41.4,63l1.46.59a48.53,48.53,0,0,0,17.71,3.44h.12c4.19,4,8.5,1.34,12.89.95,2.45-.24,4.86-.55,7.28-1,34.6-6.68,61-38.12,62.81-74.81.08-1.62-.3-3.28-.3-5v-6.6a285,285,0,0,0,31.59-10.32s.12-1,.16-1,.32,2.91.48-1h0c9,0,17.87-6.15,26.69-10.22.91,1.86,1.86,4.24,2.93,6a66.31,66.31,0,0,0,31.08,27.33,65.36,65.36,0,0,0,20.88,5.18,72.26,72.26,0,0,0,47-13.3,79.87,79.87,0,0,0,22-23.22c14-22.11,16.92-50,6.56-73.69a70.57,70.57,0,0,0-4.27-8.22c-1-1.74-2.21-3.4-3.36-5,.32-.32.67-.67.95-1a434.41,434.41,0,0,0,36.85-42.19c1.5-1.9,3-3.87,4.43-5.81,1.7,1.07,3.4,2.1,5.22,3a43.21,43.21,0,0,0,4.15,1.9c34.12,14.51,75.29-1.9,93.71-38.24,19.18-37.76,6.44-82.72-28.43-100.44-1.82-.95-3.64-1.7-5.5-2.45a441.54,441.54,0,0,0,14.63-63C1673.46,2203.3,1675.47,2203.26,1677.49,2203.06Zm-456.43,229.62a2.27,2.27,0,0,1-.52-.08.15.15,0,0,1-.12,0,236.89,236.89,0,0,1-62.44-21.51c-126.65-64.3-172.88-227.6-103.24-364.74,30.13-59.35,77-104.07,130.8-130.49,38.95-19.18,81.54-28.71,124-27.24a238.69,238.69,0,0,1,100.64,25.86c1.19.59,2.37,1.23,3.52,1.86,124,65.48,168.73,227,99.72,362.88-43.38,85.41-121.47,140.57-204.83,154.45A246.55,246.55,0,0,1,1221.06,2432.68Z"/><path class="cls-10" d="M1546.49,2538.5a80,80,0,0,1-22,23.25,72.32,72.32,0,0,1-47,13.36,122.89,122.89,0,0,1-42-4.78,65.17,65.17,0,0,1-40-21.51c-10.4,4-20.88,7.39-31.51,10.44.2,2.09.4,4.23.43,6.4,0,1.7,0,3.36-.08,5-1.58,36.89-28.47,68.13-63.19,74.81-2.41.48-4.82.79-7.28,1-4.39.39-8.7,3-12.89-.95h-.12c-19.81,1.11-36.1-.67-49.27-4.78a5.5,5.5,0,0,1-1.15-.36c-1.26-.4-2.49-.83-3.68-1.27-.87-.32-1.7-.63-2.49-1-25.27-10.36-37.37-30.13-40.61-53.26-.08-.55-.16-1.07-.2-1.62-.24-2.06-.93-4.11-1-6.21-.08-1.07-.65-1.82-.65-2.81v-6.52c-4-.51-9.13-1-14-1.78-1.19-.16-2.12-.28-3.3-.47-1.42-.2-2.7-.43-4.08-.67a1.71,1.71,0,0,0-.48-.08,2.08,2.08,0,0,1-.52-.08c-.31.71-.65,1.42-1,2.14-18.43,36.3-59.62,52.75-93.74,38.24a66.53,66.53,0,0,1-41.63-6.17,65.13,65.13,0,0,1-15.89-11.35,64.48,64.48,0,0,1-9.21-11,69.88,69.88,0,0,1-9.77-21.79,78.56,78.56,0,0,1-1.27-33.45,83.43,83.43,0,0,1,7.71-22.86c1-1.94,2.1-3.8,3.2-5.65l-.08-.08c-3.64-2.85-7.2-5.89-10.72-9-.28-.24-.55-.47-.83-.75-5.61-5-11-10.24-16.29-15.34a.71.71,0,0,1-.28.08c-8,3.08-16.25,4-24.4,4h-.08c-35.07,7.91-79.52-9.29-95.5-35.78a74.33,74.33,0,0,1-9.84-47.49A81.87,81.87,0,0,1,873.92,2331c1.78-1.23,3.56-2.14,5.38-3.16a0,0,0,0,1,0,0,399.82,399.82,0,0,1-16.85-58.64,4,4,0,0,0,0,.71h0a2.38,2.38,0,0,1-.91-.12s0,.12-.08.12h-.08c-1.7,0-3.48-.4-5.18-.24a66.29,66.29,0,0,1-53.46-20c-12.14-12.34-19.73-29.86-20.13-49.55-.83-41.6,30.76-78.26,70.58-81.82,2-.2,4-.3,6-.3a443.11,443.11,0,0,1,14.67-63.06c-1.86-.75-3.72-1.52-5.5-2.43-34.92-17.71-47.65-62.72-28.47-100.48,18.43-36.3,59.63-52.75,93.75-38.24a64.83,64.83,0,0,1,13.8-.91,436.43,436.43,0,0,1,37.8-43.18c-1.19-1.62-2.33-3.28-3.4-5-20.6-34.2-9.73-81.3,24.32-105.14a74.26,74.26,0,0,1,25.43-11.59q8.54,5.75,17.64,12.3c45.43,32.94,98.66,80.59,128.55,138.79,2.77,5.5,5.42,11.11,7.79,16.81-53.78,26.41-100.67,71.14-130.8,130.49-69.63,137.13-23.41,300.44,103.24,364.74a236.89,236.89,0,0,0,62.44,21.51,5.15,5.15,0,0,0,.75,0,251.86,251.86,0,0,0,56.9-4.51c2.65-.51,5.26-1.07,7.91-1.66s5.14-1.19,7.67-1.82c4.78,3.16,9.77,6.21,14.91,9,50.1,27.68,117.2,38.63,205.38,23.49a.14.14,0,0,0,.12,0q15.72-2.67,32.31-6.52a1.65,1.65,0,0,0,.44-.08,99.74,99.74,0,0,1,6.25,14.31C1561.67,2490.06,1557.76,2515,1546.49,2538.5Z"/><path class="cls-31" d="M282.34,2801.88a12.2,12.2,0,0,0-5.33-.59,13,13,0,0,0-6.43,2.91c-1.15.88-10.61,8.35-10.5,18.59.09,8.19,6.2,8.7,12.27,22.36,4.94,11.11,2.11,13.51,6.61,19.24,7.51,9.57,24,13.8,31.09,7.5,3.31-2.94,3.75-7.43,3.87-8.63,1.09-11.15-10.53-14.34-13.07-26.88s7.3-18.42,2.57-25.56C301.49,2807.92,295.11,2805.91,282.34,2801.88Z"/><path class="cls-32" d="M291.55,2782.63c-10.53,9.69-15.11,20.46-11.81,26a11.8,11.8,0,0,0,4.52,3.86c7.06,3.87,14.58,1,16,.47l13.57-19.06Z"/><path class="cls-33" d="M24,2856.49a9.8,9.8,0,0,0-9.8,1.94C10.07,2862.13,4,2867.9.84,2872.9c-5.2,8.12,14.6,12,35.09,16.27s45.85,11,45.1,4.8-6.64-15.58-26.44-25.64C49.34,2865.67,32.71,2859.54,24,2856.49Z"/><path class="cls-34" d="M26.08,2833.83,17.51,2861s4.65,8.82,17,3.62l14.27-23.7Z"/><path class="cls-35" d="M790.46,1666.61c0,.08-40.5,58.36-79.31,69.78L813.47,1753s-13.35-4.51-13.35-23.25c0-11.69,9.1-39.78,9.1-39.78Z"/><path class="cls-36" d="M570.89,2263.61a1616.81,1616.81,0,0,1,34.51,172.33c18.28,126.38,7.08,153.54,1.18,165.39-21.92,44-58.21,52.56-149.66,107.16a1488.57,1488.57,0,0,0-146.1,99.35,56.84,56.84,0,0,1-33.88-18.75c8.38-40.63,23.95-67.58,36.08-84.26,14.37-19.75,27.12-29.49,89.12-78.9,44-35.08,66.06-52.66,67.21-54.79,37.68-70-83.87-162.86-56.25-235.63C423.43,2308.27,457.68,2276,570.89,2263.61Z"/><path class="cls-37" d="M313,2704.84c14.37-19.75,27.12-29.49,89.12-78.9,44-35.08,66.06-52.66,67.21-54.79,37.68-70-83.87-162.86-56.25-235.63,10.34-27.25,44.58-59.57,157.79-71.91,5.27,20.42,11.36,45.74,17.45,75.19-41.58,21.38-54.43,42.66-56.9,60-5.88,41.18,45.3,69.89,32.87,105.2-10.08,28.65-49.23,25.2-57,54.79-7.52,28.69,25.85,45.06,19.72,67.94-10,37.39-105.21,16.58-155.6,65.75-16.21,15.82-32.22,43.32-33.39,94.91-10.25,7.53-19.36,14.42-27.24,20.51a56.84,56.84,0,0,1-33.88-18.75C285.31,2748.46,300.88,2721.51,313,2704.84Z"/><path class="cls-38" d="M591.71,2278.22c-33.77,23.13-80.76,56.64-134.78,99.72-77.78,62-161.43,128.71-245,228.67-45.36,54.24-104.54,134.81-158.54,244.27a42.88,42.88,0,0,1-39.14-11.61c-9.8-80.65,4.58-137.27,18.63-173.13,31.26-79.8,67.29-73.25,129.3-189.57C179,2445,198,2403.92,238.43,2332.81c15.47-27.19,27.25-46.77,46.46-68.84a334.24,334.24,0,0,1,86.77-70.74Z"/><path class="cls-39" d="M825.63,1646c3.23-10.61-4.37-26.57-16.87-31.19-9.28-3.43-18,.61-24.31,3.55-2.93,1.36-23.46,11.19-24.51,28.44-.33,5.48,2,12.07,5.54,16.73,1.84,2.4,4.86,5.17,11.25,10.26,5.67,4.52,5.35,4.4,7.06,5.7,4.11,3.11,11.76,8.13,24.4,12.81a65.31,65.31,0,0,1-.13-11.35,57.76,57.76,0,0,1,3-14.43C815.59,1654.13,823.11,1654.3,825.63,1646Z"/><path class="cls-40" d="M792.72,1688.62s15.48,12.73,34.65,4.63c17.16-7.25,6-47.53-8.09-52-4.71-1.49-12.61,0-18.11,3.79-3.25,2.26-3.95,4.18-9.33,7.77-5,3.31-6.71,3.24-7.88,5.2-1.46,2.45-1.49,7.22,6,17.54-4.53-2.23-9-2.13-11.39.21a6.34,6.34,0,0,0-1.55,3.09C776.1,1684.23,782.2,1688.54,792.72,1688.62Z"/><path class="cls-41" d="M1215.9,1709.82l24.07-24.74s30-14.66,51.95-3.7,2.78,9.44-8.47,10.93-28.17,11.62-39.07,17.51-22.59,13.75-22.59,13.75Z"/><path class="cls-42" d="M1213.75,1696l23.38,29.22c-21.34,72.74-55.57,112.72-83.28,135.88-88.58,74-180.52,34.56-298.12,123.82-36.29,27.54-59.16,55.31-78.2,78.42-85.85,104.2-80.47,171.65-154.41,214.05-40.72,23.35-79.9,24.43-105.54,25.14-73.14,2-172.72-26.34-188.37-84.78a65.57,65.57,0,0,1-1.58-25c14.33-126.36,163.91-299.65,224.27-367.45,42.1-47.29,78.39-85.51,134.42-95,23.47-4,42.43-1.43,80.36,3.65,69,9.23,90.48,24.68,151,37.42,40.85,8.59,86.48,18.19,137,10.53C1084.56,1777.41,1147.52,1762.14,1213.75,1696Z"/><path class="cls-43" d="M485.42,2232.19c22.91-48.33-3-84.57,26.3-120.54,35.35-43.47,88-8.75,140.26-50.41,60.73-48.38,35.78-131.84,87.66-151.22,32.6-12.18,47.34,18.94,96.43,11,53.1-8.64,54.15-48,107.39-65.75,57.85-19.25,85,17.84,162.18,13.15a237.84,237.84,0,0,0,49.7-8.59c-.49.42-1,.87-1.48,1.28-88.58,74-180.52,34.56-298.12,123.82-36.29,27.54-59.16,55.31-78.2,78.42-85.85,104.2-80.47,171.65-154.41,214.05-40.72,23.35-79.9,24.43-105.54,25.14A314.73,314.73,0,0,1,426.63,2291C459.1,2272.74,476.19,2251.65,485.42,2232.19Z"/></g></g></g></svg>