<svg xmlns="http://www.w3.org/2000/svg" xmlns:xlink="http://www.w3.org/1999/xlink" viewBox="0 0 2811.67 2800"><defs><style>.cls-1{isolation:isolate;}.cls-2{fill:#f4f7fa;}.cls-3{fill:url(#linear-gradient);}.cls-4{fill:url(#linear-gradient-2);}.cls-24,.cls-27,.cls-5{fill:#fff;}.cls-5{opacity:0.74;}.cls-6{fill:url(#linear-gradient-3);}.cls-7{fill:url(#linear-gradient-4);}.cls-8{fill:url(#linear-gradient-5);}.cls-9{fill:url(#linear-gradient-6);}.cls-10,.cls-11,.cls-13,.cls-14{opacity:0.25;}.cls-10{fill:url(#linear-gradient-7);}.cls-11{fill:url(#linear-gradient-8);}.cls-12{fill:url(#linear-gradient-9);}.cls-13{fill:url(#linear-gradient-10);}.cls-14{fill:url(#linear-gradient-11);}.cls-15{fill:url(#linear-gradient-12);}.cls-16{fill:url(#linear-gradient-13);}.cls-17{fill:url(#linear-gradient-14);}.cls-18{fill:url(#linear-gradient-15);}.cls-19{fill:url(#linear-gradient-16);}.cls-20{fill:url(#linear-gradient-17);}.cls-21{fill:#413974;}.cls-22{fill:#26264f;}.cls-23{fill:url(#linear-gradient-18);}.cls-25{fill:url(#linear-gradient-19);}.cls-26{fill:#d8dee8;}.cls-27{opacity:0.48;mix-blend-mode:soft-light;}.cls-28{fill:url(#linear-gradient-20);}.cls-29{fill:url(#linear-gradient-21);}.cls-30{fill:url(#linear-gradient-22);}.cls-31{fill:url(#linear-gradient-23);}.cls-32{fill:url(#linear-gradient-24);}.cls-33{fill:url(#linear-gradient-25);}.cls-34{fill:url(#linear-gradient-26);}.cls-35{fill:url(#linear-gradient-27);}.cls-36{fill:url(#linear-gradient-28);}.cls-37{fill:url(#linear-gradient-29);}.cls-38{fill:url(#linear-gradient-30);}.cls-39{fill:url(#linear-gradient-31);}.cls-40{fill:url(#linear-gradient-32);}.cls-41{fill:url(#linear-gradient-33);}.cls-42{fill:url(#linear-gradient-34);}.cls-43{fill:url(#linear-gradient-35);}.cls-44{fill:url(#linear-gradient-36);}.cls-45{fill:url(#linear-gradient-37);}.cls-46{fill:url(#linear-gradient-38);}.cls-47{fill:url(#linear-gradient-39);}.cls-48{fill:#9b305e;}.cls-49{fill:url(#linear-gradient-40);}.cls-50{fill:url(#linear-gradient-41);}</style><linearGradient id="linear-gradient" x1="970.73" y1="1829.83" x2="-522.82" y2="924.98" gradientUnits="userSpaceOnUse"><stop offset="0" stop-color="#ff9085"/><stop offset="1" stop-color="#fb6fbb"/></linearGradient><linearGradient id="linear-gradient-2" x1="1101.8" y1="263.35" x2="880.15" y2="1551.69" xlink:href="#linear-gradient"/><linearGradient id="linear-gradient-3" x1="425.46" y1="-17.18" x2="712.68" y2="1442.46" gradientUnits="userSpaceOnUse"><stop offset="0" stop-color="#ffc444"/><stop offset="1" stop-color="#f36f56"/></linearGradient><linearGradient id="linear-gradient-4" x1="1333.87" y1="-148.18" x2="1614.69" y2="1278.97" xlink:href="#linear-gradient-3"/><linearGradient id="linear-gradient-5" x1="592.15" y1="-36.65" x2="872.6" y2="1388.55" xlink:href="#linear-gradient-3"/><linearGradient id="linear-gradient-6" x1="340.14" y1="-14.37" x2="630.4" y2="1460.67" xlink:href="#linear-gradient-3"/><linearGradient id="linear-gradient-7" x1="1390.61" y1="-150" x2="1667.81" y2="1258.75" xlink:href="#linear-gradient-3"/><linearGradient id="linear-gradient-8" x1="1229.14" y1="-114.68" x2="1504.79" y2="1286.15" xlink:href="#linear-gradient-3"/><linearGradient id="linear-gradient-9" x1="1424.2" y1="-153.64" x2="1701.87" y2="1257.46" xlink:href="#linear-gradient-3"/><linearGradient id="linear-gradient-10" x1="638.37" y1="-52.39" x2="924.56" y2="1402.04" xlink:href="#linear-gradient-3"/><linearGradient id="linear-gradient-11" x1="954.15" y1="-68.34" x2="1231.08" y2="1339.02" xlink:href="#linear-gradient-3"/><linearGradient id="linear-gradient-12" x1="859.8" y1="-77.62" x2="1136.35" y2="1327.82" xlink:href="#linear-gradient-3"/><linearGradient id="linear-gradient-13" x1="407.2" y1="-20.69" x2="697.14" y2="1452.81" xlink:href="#linear-gradient-3"/><linearGradient id="linear-gradient-14" x1="1137.98" y1="-131.37" x2="1430.61" y2="1355.74" xlink:href="#linear-gradient-3"/><linearGradient id="linear-gradient-15" x1="236.28" y1="724.83" x2="129.57" y2="1345.04" xlink:href="#linear-gradient-3"/><linearGradient id="linear-gradient-16" x1="1704.84" y1="536.66" x2="2690.76" y2="536.66" gradientUnits="userSpaceOnUse"><stop offset="0" stop-color="#311944"/><stop offset="1" stop-color="#a03976"/></linearGradient><linearGradient id="linear-gradient-17" x1="1754.93" y1="498.65" x2="2740.85" y2="498.65" xlink:href="#linear-gradient"/><linearGradient id="linear-gradient-18" x1="323.65" y1="2076.31" x2="1462.48" y2="2076.31" gradientUnits="userSpaceOnUse"><stop offset="0" stop-color="#444b8c"/><stop offset="1" stop-color="#26264f"/></linearGradient><linearGradient id="linear-gradient-19" x1="323.65" y1="2514.19" x2="2039.26" y2="2514.19" xlink:href="#linear-gradient-18"/><linearGradient id="linear-gradient-20" x1="2309.99" y1="967.2" x2="1968.16" y2="1295.75" xlink:href="#linear-gradient"/><linearGradient id="linear-gradient-21" x1="1377.74" y1="2048.68" x2="793.74" y2="3022.01" xlink:href="#linear-gradient"/><linearGradient id="linear-gradient-22" x1="1910.16" y1="2124.11" x2="966.48" y2="226.57" xlink:href="#linear-gradient"/><linearGradient id="linear-gradient-23" x1="1202.18" y1="1755.99" x2="2113.36" y2="1755.99" gradientUnits="userSpaceOnUse"><stop offset="0" stop-color="#311944"/><stop offset="1" stop-color="#893976"/></linearGradient><linearGradient id="linear-gradient-24" x1="1948" y1="1285.88" x2="1573.25" y2="1978.6" gradientUnits="userSpaceOnUse"><stop offset="0" stop-color="#e38ddd"/><stop offset="1" stop-color="#9571f6"/></linearGradient><linearGradient id="linear-gradient-25" x1="1616.74" y1="1832.94" x2="1719.06" y2="1832.94" xlink:href="#linear-gradient-23"/><linearGradient id="linear-gradient-26" x1="1839.71" y1="1227.3" x2="1464.96" y2="1920.02" xlink:href="#linear-gradient-24"/><linearGradient id="linear-gradient-27" x1="1405.12" y1="1344.64" x2="1568.11" y2="1549.71" gradientTransform="translate(365.49)" xlink:href="#linear-gradient-3"/><linearGradient id="linear-gradient-28" x1="1762.78" y1="1759.53" x2="6164.77" y2="40.85" xlink:href="#linear-gradient-3"/><linearGradient id="linear-gradient-29" x1="1888.92" y1="2845.6" x2="1941.56" y2="2892.43" gradientTransform="translate(321.95 139.6) rotate(-8.05)" xlink:href="#linear-gradient-18"/><linearGradient id="linear-gradient-30" x1="1014.37" y1="2892.5" x2="1014.37" y2="2800.79" gradientTransform="translate(1238.15 10.08) rotate(-8.05)" xlink:href="#linear-gradient-3"/><linearGradient id="linear-gradient-31" x1="1894.21" y1="2839.65" x2="1946.86" y2="2886.48" gradientTransform="translate(321.95 139.6) rotate(-8.05)" xlink:href="#linear-gradient-18"/><linearGradient id="linear-gradient-32" x1="1852.62" y1="2721.97" x2="1905.27" y2="2768.8" gradientTransform="translate(365.49)" xlink:href="#linear-gradient-18"/><linearGradient id="linear-gradient-33" x1="978.02" y1="2768.89" x2="978.02" y2="2677.17" gradientTransform="translate(1290.8)" xlink:href="#linear-gradient-3"/><linearGradient id="linear-gradient-34" x1="2458.67" y1="2791.74" x2="2336.4" y2="1935.84" xlink:href="#linear-gradient-24"/><linearGradient id="linear-gradient-35" x1="1754.83" y1="1739.16" x2="6156.84" y2="20.47" xlink:href="#linear-gradient-3"/><linearGradient id="linear-gradient-36" x1="1857.91" y1="2716.02" x2="1910.56" y2="2762.85" gradientTransform="translate(365.49)" xlink:href="#linear-gradient-18"/><linearGradient id="linear-gradient-37" x1="-1161.25" y1="1224.39" x2="-1051.76" y2="1010.55" gradientTransform="matrix(-1, 0, 0, 1, 1244.88, 0)" xlink:href="#linear-gradient-3"/><linearGradient id="linear-gradient-38" x1="2375.85" y1="1008.81" x2="2388.72" y2="1455.83" gradientUnits="userSpaceOnUse"><stop offset="0" stop-color="#ab316d"/><stop offset="1" stop-color="#792d3d"/></linearGradient><linearGradient id="linear-gradient-39" x1="1916.42" y1="1041.99" x2="2201.53" y2="1400.69" gradientTransform="translate(365.49)" xlink:href="#linear-gradient-3"/><linearGradient id="linear-gradient-40" x1="2330.5" y1="1010.12" x2="2343.37" y2="1457.13" xlink:href="#linear-gradient-38"/><linearGradient id="linear-gradient-41" x1="1707.12" y1="1616.96" x2="6109.12" y2="-101.72" xlink:href="#linear-gradient-3"/></defs><title>1</title><g class="cls-1"><g id="Layer_2" data-name="Layer 2"><g id="Illustration"><g id="Cyber_security_software" data-name="Cyber security software"><path class="cls-2" d="M675.9,168.29c-94.43,135.18,16.29,354.35-123.83,456-136.4,99-304-63.25-432.5,21.94C-71.12,772.63-36.29,1350.9,242.5,1710.19c83.84,108.05,153.9,150.09,184.93,272.29,66.63,262.4-167.53,418.49-123,548.26C404.79,2823,1947.83,3068.16,2567,2190c289.16-410.15,332.43-1002.41,74.07-1452.24C2174.19-75.1,887.79-135,675.9,168.29Z"/><path class="cls-3" d="M905.52,1490.49l-45.13-.38a351,351,0,0,0-15.94-59.39l39.15-22.17a22.16,22.16,0,0,0,8.18-30.39l-38.6-67.23a22.59,22.59,0,0,0-30.58-8.57l-39.66,22.33a361.94,361.94,0,0,0-43.52-43.76l23-39.36a22.54,22.54,0,0,0-8.23-30.7l-67.34-39.73a22.43,22.43,0,0,0-30.83,7.72l-23.16,39.48a359.93,359.93,0,0,0-59.74-16.61v-46.25a23,23,0,0,0-22.69-22.86l-78.54-1.32a22.22,22.22,0,0,0-22.8,22.16v46.39a356.38,356.38,0,0,0-60.27,14.88l-23.45-40.45a23.32,23.32,0,0,0-31.31-8.77l-68.7,38a22.25,22.25,0,0,0-8.42,30.82l23.54,40.47A354.61,354.61,0,0,0,235.9,1318l-40.79-23.67a23.15,23.15,0,0,0-31.56,7.9l-40,67.46a22.63,22.63,0,0,0,8.48,31.13l40.5,23.36a347.26,347.26,0,0,0-16.46,60.07l-46.77-.39a22.74,22.74,0,0,0-23.19,22.55v78.55a23.13,23.13,0,0,0,23.19,22.87l46.4.25A350.69,350.69,0,0,0,172,1668.68l-39.9,22.46a22.44,22.44,0,0,0-8.48,31l40,68a23.34,23.34,0,0,0,31.56,8.34l39.59-22.42a362,362,0,0,0,45,44.45l-22.75,38.78a22.44,22.44,0,0,0,8.42,30.93l68.7,39a23.12,23.12,0,0,0,31.31-8.34l22.46-38.43a360.09,360.09,0,0,0,61.26,16v44.36a22.59,22.59,0,0,0,22.8,22.48l78.54-.23a22.67,22.67,0,0,0,22.69-22.55v-44.23a356.32,356.32,0,0,0,60.73-16.12L656,1920.31a22.61,22.61,0,0,0,30.83,8.15l67.34-38.8a22.35,22.35,0,0,0,8.23-30.58l-22.23-38.34a354.47,354.47,0,0,0,43.91-43.83l38.5,22.21a22.4,22.4,0,0,0,30.58-8.14l38.6-66.69a22.35,22.35,0,0,0-8.18-30.51L845,1671.39a347.1,347.1,0,0,0,15.71-59.5l44.77.24a22.15,22.15,0,0,0,22.3-22.17v-77A22.52,22.52,0,0,0,905.52,1490.49ZM511.19,1322.22c126.45,1.56,228.4,104.06,228.4,229s-102,226-228.4,225.8c-127.22-.19-230.91-102.7-230.91-229S384,1320.66,511.19,1322.22Z"/><path class="cls-4" d="M1400.51,601.33l-40.85-1.12a307.49,307.49,0,0,0-14.43-52.65l35.45-18.84a19,19,0,0,0,7.4-26.64l-34.94-60a21.06,21.06,0,0,0-27.71-8.15l-36,18.93a334.62,334.62,0,0,0-39.51-39.49l20.89-34.29c5.63-9.24,2.29-21.45-7.47-27.27l-61.2-36.5c-9.81-5.85-22.38-3.09-28.05,6.17L1153,355.93A342,342,0,0,0,1098.57,340V299.07c0-11-9.26-20.27-20.7-20.72l-71.77-2.87c-11.51-.46-20.86,8.11-20.86,19.15v41.11A330.5,330.5,0,0,0,930,347.68l-21.5-36.38a22.12,22.12,0,0,0-28.72-8.45l-63.12,32.3A19.15,19.15,0,0,0,809,362.35l21.65,36.43a311.18,311.18,0,0,0-41,37.45l-37.55-21.85c-10.17-5.92-23.2-3.06-29.08,6.4L686.11,480c-5.91,9.49-2.4,22,7.82,27.87l37.35,21.54a295.79,295.79,0,0,0-15.18,53.14l-43.16-1.18c-11.82-.32-21.42,8.48-21.42,19.67V671c0,11.19,9.59,20.47,21.42,20.75l42.82,1a307.44,307.44,0,0,0,15,54.21l-36.79,19.37a19.4,19.4,0,0,0-7.82,27.47L723,854.9a22.16,22.16,0,0,0,29.08,7.87l36.45-19.37a335.29,335.29,0,0,0,41.36,40.13L809,917.67c-5.85,9.55-2.38,21.9,7.75,27.6l63.12,35.48c10.06,5.66,22.92,2.52,28.72-7l20.59-33.8a342.15,342.15,0,0,0,56.11,15v39.32c0,11,9.34,20.08,20.86,20.2l71.77.75c11.44.12,20.7-8.69,20.7-19.68V956.41a329.45,329.45,0,0,0,55.35-13.47l20.19,34a21.09,21.09,0,0,0,28.05,7.59l61.2-33.41a19.27,19.27,0,0,0,7.47-26.89l-20.19-34.15A310.34,310.34,0,0,0,1290.52,852l34.91,20.14c9.71,5.6,22.11,2.57,27.71-6.76l34.94-58.23c5.58-9.3,2.27-21.39-7.4-27l-34.92-20.31A295.78,295.78,0,0,0,1360,707.58l40.52.93c11.14.26,20.17-8.33,20.17-19.17V621.52C1420.68,610.67,1411.66,601.63,1400.51,601.33ZM1042,445.42c115.35,3.84,208.08,96.32,208.08,206.6S1157.39,850.12,1042,848.15c-116.43-2-211.62-94.54-211.62-206.69S925.61,441.54,1042,445.42Z"/><path class="cls-5" d="M1042,35.71C685.86,18,389.54,283.62,389.54,629.44s296.31,626.38,652.5,626.63c346.28.24,620-266,620-594.56S1388.32,52.92,1042,35.71Zm0,1074.45C772,1108.39,548.67,894.94,548.67,633.45S772,169.77,1042,181.62c264.35,11.59,474.57,224.71,474.57,476.23S1306.39,1111.89,1042,1110.16Z"/><path class="cls-6" d="M609.33,860.26,472.27,932.67c53.38,91.45,129.77,168.89,221.27,225.06l78.08-127.64C704.4,987,648.4,928.68,609.33,860.26Z"/><path class="cls-7" d="M1432.35,394l127.38-67.13c-52.24-78.48-122.3-145.62-204.84-195.64L1280.46,253.1A496.75,496.75,0,0,1,1432.35,394Z"/><path class="cls-8" d="M639.1,365.58A462.93,462.93,0,0,1,799,233.18L721.13,101.83c-87.44,43.64-162.61,106.79-219.24,184Z"/><path class="cls-9" d="M548.67,633.45c0-5.59.24-11.12.45-16.67l-159.33-4.12q-.24,8.36-.24,16.78c0,99.44,24.8,193.88,68.75,277.93l137.64-72.54A454.4,454.4,0,0,1,548.67,633.45Z"/><path class="cls-10" d="M1516.61,657.85A439.62,439.62,0,0,1,1472.71,850l126.93,73.76A577.79,577.79,0,0,0,1662,661.51q0-8-.22-16l-145.63-3.77C1516.38,647.13,1516.61,652.47,1516.61,657.85Z"/><path class="cls-11" d="M1460.21,874.14c-36.6,65.1-89.45,120.42-153.51,161.12l74.34,125.61c86-53.45,156.81-126.82,205.82-213.29Z"/><path class="cls-12" d="M1447.74,417.34a459.06,459.06,0,0,1,66.72,197.28l146,3.94c-7-96.72-37.4-187.95-85.87-268.23Z"/><path class="cls-13" d="M1027.63,1109.71a506.34,506.34,0,0,1-231-64.66L718.8,1172.45a665.94,665.94,0,0,0,308.82,83.43Z"/><path class="cls-14" d="M1282.7,1049.46c-66.41,36.87-143.44,58.65-226.26,60.44v146c110.28-2.28,212.7-31.54,300.65-80.89Z"/><path class="cls-15" d="M824.84,221c61.73-26.66,130.46-40.84,202.79-39.71V35.16C927.38,32.32,832.09,52,747.07,89.64Z"/><path class="cls-16" d="M551,588.63a438.64,438.64,0,0,1,71.69-200.13l-137-79.43a576.62,576.62,0,0,0-94.39,275.25Z"/><path class="cls-17" d="M1056.44,182.6a506.75,506.75,0,0,1,199.08,56.49l74.66-122A666.43,666.43,0,0,0,1056.44,36.6Z"/><path class="cls-18" d="M379.69,881.36l-19.92.16a143.31,143.31,0,0,0-7-25.16L370,846.64a9.35,9.35,0,0,0,3.61-13l-17-28.33a10.06,10.06,0,0,0-13.49-3.41L325.6,811.7a152.73,152.73,0,0,0-19.18-18.28l10.14-16.93a9.3,9.3,0,0,0-3.63-13l-29.67-16.36a10.18,10.18,0,0,0-13.57,3.53l-10.19,17A160.58,160.58,0,0,0,233.22,761V741.39a9.74,9.74,0,0,0-10-9.53l-34.51.08a9.83,9.83,0,0,0-10,9.6v19.7A162.84,162.84,0,0,0,152.27,768L142,751a10.3,10.3,0,0,0-13.73-3.47L98.14,764.24a9.38,9.38,0,0,0-3.69,13.14l10.31,17A157.26,157.26,0,0,0,85.24,813l-17.86-9.72a10.43,10.43,0,0,0-13.81,3.59L36.1,835.76a9.34,9.34,0,0,0,3.71,13.13l17.72,9.6a145.53,145.53,0,0,0-7.2,25.58l-20.46.17A10,10,0,0,0,19.72,894v33.28a9.78,9.78,0,0,0,10.14,9.53l20.29-.21a143.35,143.35,0,0,0,7.1,25.59L39.8,971.94a9.44,9.44,0,0,0-3.71,13.2l17.48,28.57A10.31,10.31,0,0,0,67.39,1017l17.33-9.76a152.89,152.89,0,0,0,19.7,18.57l-10,16.59a9.28,9.28,0,0,0,3.69,13.07l30.11,16.11a10.42,10.42,0,0,0,13.73-3.73l9.85-16.45a160.8,160.8,0,0,0,26.89,6.44v18.84a9.61,9.61,0,0,0,10,9.41l34.51-.56a10,10,0,0,0,10-9.72v-18.79a162.82,162.82,0,0,0,26.71-7.22l9.76,16.07a10.07,10.07,0,0,0,13.57,3.28l29.67-16.91a9.41,9.41,0,0,0,3.63-13.06l-9.8-16.17a157,157,0,0,0,19.35-18.93l17,9.2a10.17,10.17,0,0,0,13.49-3.66l17-28.64A9.25,9.25,0,0,0,370,968.07l-17-9.27a145.31,145.31,0,0,0,6.93-25.44l19.76-.2a9.8,9.8,0,0,0,9.85-9.6V890.78A9.58,9.58,0,0,0,379.69,881.36ZM206,812.72c55.61-.3,100.5,42.52,100.5,95.65s-44.9,96.78-100.5,97.52c-55.86.73-101.32-42.08-101.32-95.64S150.15,813,206,812.72Z"/><g class="cls-1"><path class="cls-19" d="M2250.77,243.21c109.8,5.75,202.65,104,207.36,219.52a213.58,213.58,0,0,1-1.06,32.21,149,149,0,0,1,62.42-9.88c90.62,4.75,167.22,85.84,171.11,181.14,3.7,90.6-59.58,161.38-143.64,164.12-4.41.12-8.88.1-13.39-.13l-751.06-41.9c-42.32-10.33-75.69-50.66-77.59-97.14-2.14-52.37,36.53-92.74,86.38-90.13a90.48,90.48,0,0,1,30.3,7,235.93,235.93,0,0,1-7.7-50.73c-4.87-119.38,83.18-211.35,196.7-205.4a206.51,206.51,0,0,1,61,12.76C2097.9,289.3,2167.17,238.82,2250.77,243.21Z"/><path class="cls-20" d="M2300.87,205.19c109.8,5.75,202.65,104,207.36,219.52a213.57,213.57,0,0,1-1.06,32.21,149,149,0,0,1,62.43-9.88c90.62,4.75,167.22,85.84,171.11,181.14,3.7,90.6-59.58,161.38-143.64,164.12-4.41.12-8.88.1-13.39-.13l-751.06-41.9c-42.32-10.33-75.69-50.66-77.59-97.14-2.14-52.37,36.53-92.74,86.38-90.13a90.48,90.48,0,0,1,30.3,7,235.93,235.93,0,0,1-7.7-50.73c-4.87-119.38,83.18-211.35,196.7-205.4a206.51,206.51,0,0,1,61,12.76C2148,251.28,2217.26,200.81,2300.87,205.19Z"/></g><path class="cls-21" d="M2063.87,869.06A20.05,20.05,0,0,1,2043.82,849V786.33a20.05,20.05,0,1,1,40.11,0V849A20.05,20.05,0,0,1,2063.87,869.06Z"/><path class="cls-21" d="M2063.87,1061.74a20.05,20.05,0,0,1-20.05-20.05V945.34a20.05,20.05,0,1,1,40.11,0v96.34A20.05,20.05,0,0,1,2063.87,1061.74Z"/><path class="cls-21" d="M2063.87,1220.75a20.05,20.05,0,0,1-20.05-20.05V1138a20.05,20.05,0,1,1,40.11,0v62.67A20.05,20.05,0,0,1,2063.87,1220.75Z"/><path class="cls-21" d="M934.15,1111.49a20.05,20.05,0,0,1-20.05-20.05v-62.67a20.05,20.05,0,1,1,40.11,0v62.67A20.05,20.05,0,0,1,934.15,1111.49Z"/><path class="cls-21" d="M934.15,1304.17a20.05,20.05,0,0,1-20.05-20.05v-96.34a20.05,20.05,0,1,1,40.11,0v96.34A20.05,20.05,0,0,1,934.15,1304.17Z"/><path class="cls-21" d="M934.15,1463.18a20.05,20.05,0,0,1-20.05-20.05v-62.67a20.05,20.05,0,1,1,40.11,0v62.67A20.05,20.05,0,0,1,934.15,1463.18Z"/><path class="cls-21" d="M1516.61,782.91a20.05,20.05,0,0,1-20.05-20.05V700.19a20.05,20.05,0,1,1,40.11,0v62.67A20.05,20.05,0,0,1,1516.61,782.91Z"/><path class="cls-21" d="M1516.61,975.6a20.05,20.05,0,0,1-20.05-20.05V859.2a20.05,20.05,0,1,1,40.11,0v96.34A20.05,20.05,0,0,1,1516.61,975.6Z"/><path class="cls-21" d="M1516.61,1134.61a20.05,20.05,0,0,1-20.05-20.05v-62.67a20.05,20.05,0,1,1,40.11,0v62.67A20.05,20.05,0,0,1,1516.61,1134.61Z"/><path class="cls-21" d="M513.59,1467.45a20.05,20.05,0,0,1-20.05-20.05v-62.67a20.05,20.05,0,0,1,40.11,0v62.67A20.05,20.05,0,0,1,513.59,1467.45Z"/><path class="cls-21" d="M513.59,1660.13a20.05,20.05,0,0,1-20.05-20.05v-96.34a20.05,20.05,0,1,1,40.11,0v96.34A20.05,20.05,0,0,1,513.59,1660.13Z"/><path class="cls-21" d="M513.59,1819.15a20.05,20.05,0,0,1-20.05-20.05v-62.67a20.05,20.05,0,1,1,40.11,0v62.67A20.05,20.05,0,0,1,513.59,1819.15Z"/><path class="cls-22" d="M2039.26,2501.71l-1715.6-14.62v43.27c0,11.74,7.48,21.73,17.62,23.51l485.12,85.2a68.11,68.11,0,0,0,17.41.8l1176.82-97.15c10.51-.87,18.64-10.88,18.64-23Z"/><path class="cls-22" d="M1416.67,2432.37,341.39,2511.53c-19.24,1.42-34.89-13.63-34.89-33.62V1677.18c0-20,15.64-36.19,34.89-36.19H1416.67c15.85,0,28.67,14.65,28.67,32.71v723.84C1445.34,2415.62,1432.52,2431.21,1416.67,2432.37Z"/><path class="cls-23" d="M1433.81,2432.37,358.54,2511.53c-19.24,1.42-34.89-13.63-34.89-33.62V1677.18c0-20,15.64-36.19,34.89-36.19H1433.81c15.85,0,28.67,14.65,28.67,32.71v723.84C1462.48,2415.62,1449.67,2431.21,1433.81,2432.37Z"/><path class="cls-24" d="M1400.32,2381.34,398.81,2450.1c-15.66,1.07-28.38-11.28-28.38-27.59v-701c0-16.32,12.72-29.6,28.38-29.67l1001.51-4.32c13.08-.06,23.65,11.95,23.65,26.81v638.52C1424,2367.67,1413.39,2380.44,1400.32,2381.34Z"/><path class="cls-24" d="M934.15,1662.89c0,7.44-5.53,13.49-12.37,13.51s-12.4-6-12.4-13.46,5.55-13.51,12.4-13.51S934.15,1655.45,934.15,1662.89Z"/><path class="cls-25" d="M1476.67,2428l-1153,83.32,502.74,88.3a68.13,68.13,0,0,0,17.41.8l1195.46-98.69L1495,2428.55A89.29,89.29,0,0,0,1476.67,2428Z"/><polygon class="cls-22" points="491.89 2512.02 1451.82 2441.62 1748.91 2481.24 797.25 2556.49 491.89 2512.02"/><path class="cls-26" d="M802.91,2421.18l-408.56,27.49A20.76,20.76,0,0,1,372.2,2428V1712.41a20.76,20.76,0,0,1,20.68-20.76l410-1.66Z"/><polygon class="cls-26" points="1330.52 2030.98 900.06 2046.11 900.06 2002.58 1330.52 1989.09 1330.52 2030.98"/><polygon class="cls-26" points="1330.52 2099.61 900.06 2117.41 900.06 2073.89 1330.52 2057.72 1330.52 2099.61"/><polygon class="cls-24" points="760.77 2038.8 513.59 2047.22 513.59 2014.69 760.77 2006.95 760.77 2038.8"/><polygon class="cls-24" points="760.77 2090.98 513.59 2100.52 513.59 2067.99 760.77 2059.13 760.77 2090.98"/><polygon class="cls-24" points="760.77 2143.16 513.59 2153.81 513.59 2121.28 760.77 2111.31 760.77 2143.16"/><polygon class="cls-24" points="760.77 2195.34 513.59 2207.11 513.59 2174.57 760.77 2163.49 760.77 2195.34"/><polygon class="cls-26" points="1090.28 2179.67 900.06 2188.72 900.06 2145.19 1090.28 2136.86 1090.28 2179.67"/><path class="cls-26" d="M1059.65,1838.6V1904c0,18.9,15.9,33.81,35.46,33.3l48.49-1.27c19.32-.5,34.94-16.08,34.94-34.78v-64.69Zm44.66,67.59,9-27.31a11.79,11.79,0,0,1-6.48-10.49,12.65,12.65,0,0,1,12.56-12.39,12.06,12.06,0,0,1,12.53,11.89,12.37,12.37,0,0,1-6.46,10.74l9,26.86Z"/><path class="cls-26" d="M1164.76,1830.88a9,9,0,0,1-9.32-8.89c0-19.22-16.13-34.65-36-34.39s-36.26,16.2-36.26,35.54a9.48,9.48,0,0,1-9.45,9.27,9.12,9.12,0,0,1-9.47-9c0-29.44,24.82-53.66,55.19-54,30.2-.34,54.65,23.1,54.65,52.25A9.36,9.36,0,0,1,1164.76,1830.88Z"/><path class="cls-27" d="M358.53,2511.53l1069.84-78.76,5.44-.4a28.86,28.86,0,0,0,18.94-9.58c-77-4.21-124.8-31.53-155.65-59.76-61.95-56.69-51.2-112.6-118-149.87-83.32-46.49-148.83,12.42-212.06-45.71-38.33-35.24-19.51-61.52-66.68-114.18-52.24-58.33-86.25-38.72-138.75-91.21-66.38-66.37-33.18-118-90.36-165.67-69.37-57.81-144.18-4.3-210.21-59.75-28.48-23.91-44.11-58.68-52.27-95.65H358.54c-19.24,0-34.89,16.2-34.89,36.19v800.73C323.65,2497.89,339.29,2512.94,358.53,2511.53Z"/><path class="cls-28" d="M1627.94,2503.49a156.27,156.27,0,0,1-85-22c-77.62-46.53-192.31-123.37-295.5-224-130.93-127.64-206.16-257.38-222.62-384.78l-.26-2-3.19-543.62c0-107.44,70.08-194.65,201.64-252,108.7-47.34,252.77-70.8,405-66.4,150.43,4.35,289.63,35.39,392.66,87.11,122.47,61.48,186.73,147.88,186.73,250.31l-2.91,519.44-.24,1.91c-15,122-84.26,248.11-206.59,375.63-98.12,102.28-209,183.34-285.16,233.56A161.85,161.85,0,0,1,1627.94,2503.49Z"/><path class="cls-29" d="M1657.79,2503.49a152.63,152.63,0,0,1-83.92-22c-76.59-46.53-189.77-123.37-291.59-224-129.2-127.64-203.43-257.38-219.68-384.78l-.26-2-3.15-543.62c0-107.44,69.15-194.65,199-252,107.26-47.34,249.43-70.8,399.62-66.4,148.44,4.35,285.8,35.39,387.47,87.11,120.86,61.48,184.27,147.88,184.27,250.31l-2.88,519.44-.23,1.91c-14.84,122-83.14,248.11-203.86,375.63-96.83,102.28-206.24,183.34-281.39,233.56A158.25,158.25,0,0,1,1657.79,2503.49Z"/><path class="cls-30" d="M1095.09,1327.53l3.17,540.88c35.6,276,359.93,499.4,501.19,584.29,40.46,24.32,92.2,22.88,132.38-3.56,138.31-91,444.87-320.12,477.62-585.46l2.91-518C2212.36,961.36,1095.09,926.22,1095.09,1327.53Z"/><path class="cls-31" d="M1665.81,2369.33a19.31,19.31,0,0,1-10.47-2.77c-58.16-35.22-170.91-109-269-205.34-105.94-104.07-167-205.25-181.06-300.28L1202.18,1329c.13-51,40.53-94.72,119.72-129.67,88.41-39,214-59.49,343.9-56.41,128.64,3.05,250.53,29,335,70.85,74.69,37.06,112.46,80.76,112.58,130l-2.9,513.5c-13.08,92-70.43,191.09-171.12,295.3-94.68,98-205.27,175.66-263.08,213.43A20,20,0,0,1,1665.81,2369.33Z"/><path class="cls-2" d="M1652.53,2333c-58.74-36.18-163.18-106-254.31-195.71-99.56-98-157.18-192-170.72-279l-3.08-528.83c.09-36.49,33.63-70,99.44-99.1,83.75-37.08,203.74-56.62,328.67-53.82,123.73,2.78,240.36,27.22,320.51,66.87,62.27,30.81,93.78,64.42,93.86,100L2064,1855c-12.71,84.41-67.05,176.73-162.09,274.91C1813.69,2221,1711,2294.34,1652.53,2333Z"/><path class="cls-32" d="M1862.7,1640.58l-395.52,3.52c-30.41.27-55.18,24-55.18,52.93v253.42c0,28.78,24.68,51.09,55,49.85l394.13-16.14c28-1.15,50.77-24.35,50.91-51.85l1.25-242.09C1913.41,1662.56,1890.83,1640.33,1862.7,1640.58Z"/><path class="cls-33" d="M1719.06,1785.9c.09-28-23.93-50.11-53.27-48.26-26,1.64-47.51,22.61-49,47.78a47.64,47.64,0,0,0,25.5,45,17.66,17.66,0,0,1,8.86,18.85l-11.43,64c-1.45,8.15,5,15.32,13.52,15l28.93-1c8.46-.3,14.89-7.88,13.5-15.89L1684.65,1848c-1.32-7.57,2.58-15.08,9.44-19.2C1709,1819.85,1719,1803.89,1719.06,1785.9Z"/><path class="cls-34" d="M1857.14,1615.45a21.1,21.1,0,0,1-21.43-21.08l.24-55.2c.24-55.44-45.59-101.05-102.72-101.62l-129.1-1.28c-59.12-.59-107.73,45.51-107.78,102.71l-.05,56.95c0,12.09-10.3,22-23,22s-23.09-9.69-23.09-21.83l0-57.18c0-81.74,69.65-147.39,154-146.21l129.16,1.8c81.14,1.13,146,66.07,145.57,144.66l-.26,55A21.58,21.58,0,0,1,1857.14,1615.45Z"/><path class="cls-35" d="M1893.06,1452.58l-31-33.84a114.94,114.94,0,0,0-27.58-23.78c-24.95-15.3-59.28-22.8-64.42-14.07-5.83,9.91,26.78,39.28,37.88,49l46,33.41Z"/><path class="cls-36" d="M2555.49,1222.6c8.42,3.18,136.87,54.27,163.27,188.33,2.13,10.83,22.77,126-55.34,207.38-87.59,91.24-256.25,89-323.19,12.7-15.61-17.79-23.85-37.5-28.46-54.07h0l17.64-46.86c21.52-26,50.83-32.14,66.48-36,38.58-9.51,67.71,7.68,89.81-10.93,12.23-10.29,14.65-25.11,16.83-38.35,7.39-45.08-18.05-72.83-19.91-100.63-1.38-20.78-8.66-66.32,18.47-96C2518.26,1229.36,2542,1224.24,2555.49,1222.6Z"/><path class="cls-37" d="M2605.54,2716.68c1.5-8.25,28.15-15.72,41.35-4.67,6.55,5.49,11.07,16.62,7.27,21.64-1.38,1.83,4.27,5-1.14,5.11C2635.07,2739,2604.05,2724.88,2605.54,2716.68Z"/><path class="cls-38" d="M2633.48,2719.68l27.41-3.87c-12.7-15.29-10.35-64-10.35-64l-29.15,6.51s3.32,13.36,9,33.08C2632.3,2698.16,2633.16,2708.72,2633.48,2719.68Z"/><path class="cls-39" d="M2631,2716.3s33-7.6,36.57-1.06,6.34,24.07-14.6,23.51S2629.19,2721.85,2631,2716.3Z"/><path class="cls-40" d="M2229.44,2747.62c2.64-8,30.07-11.63,41.6,1.16,5.72,6.35,8.63,18,4.17,22.44-1.62,1.62,3.52,5.59-1.85,4.9C2255.55,2773.82,2226.81,2755.54,2229.44,2747.62Z"/><path class="cls-41" d="M2256.68,2754.51h27.68c-10.43-16.92-1.29-64.8-1.29-64.8l-29.77,2.36s1.42,13.7,4.25,34C2258.52,2733,2257.9,2743.61,2256.68,2754.51Z"/><path class="cls-42" d="M2184.93,1707.64A1281.05,1281.05,0,0,0,2142,1904.09c-33.63,244.6,37.84,252.4,24.5,523.45-4.26,86.52,75,286,81.94,290.43a86,86,0,0,0,11,.43,109.24,109.24,0,0,0,27.9-4.65c12.55-2.16,57.79-124.7,47.3-197.56-7.42-51.57-5.27-106.91-1-217.59.7-17.93,46.58-348.92,46.58-348.92h0c14,122.51,30,226.61,43.93,307.31,44.71,259.3,190.08,416.24,197.66,418.76,1.5.6,15.14,5.56,26.29-1.79a18.15,18.15,0,0,0,6.65-7.49c3.89-3-1.15-258.88-45.49-451.42-64.36-279.46-36.33-344.85-56.72-469.68C2534.89,1637.36,2184.93,1707.64,2184.93,1707.64Z"/><path class="cls-43" d="M2444.89,1200.78c-42.73-1.26-140.94-16.34-195,32.34-.94.84,10.14,6.77,4.68,13.16a353.88,353.88,0,0,0-38.19,54.8c-11.41,20.34-21.71,44.06-32.1,79.4A682.17,682.17,0,0,0,2158.9,1519c-9.89,130-.08,190,8.81,230.85,38.63,19.84,138.18,55.35,256.8,37.71a400.81,400.81,0,0,0,128-42.17c-30.78-93.19-6.63-143.06,4.76-189,16.24-65.54,16.51-60.58,29.88-112.65,22.07-85.9,25.69-173.68,10.53-191.64C2556.82,1203.66,2483.15,1201.91,2444.89,1200.78Z"/><path class="cls-44" d="M2254.74,2750.82s33.74-2.91,36.36,4.07,2.91,24.72-17.74,21.23S2252.12,2756.06,2254.74,2750.82Z"/><path class="cls-45" d="M2324.63,1151.79c-13.23-22.38-7.34-47.94-6-53.46,5.57-23.13,7.64-26.63,11.93-31.53l6.07-6.42s.38-.28.78-.56c4.22-2.9,20-7.62,23.38-7.79,10.87-.55,33,38.43,45.65,98.48q1.54,3.22,3.06,6.5c6.28,13.63,11.67,27,16.3,40.09,73.44,6.21,83.64,14.83,84,19.8.69,10.48-41.16,22.58-72.63,27.19-68.64,10-139.19-8.05-138.87-20.85.14-5.57,13.78-12.83,72-20.45l-4.08-28.89C2361.41,1172.86,2334.38,1168.28,2324.63,1151.79Z"/><path class="cls-46" d="M2310.83,1049.24c5,18.33,18.82,35.62,24.06,37.6a31.59,31.59,0,0,1,8.58,5.49,9.68,9.68,0,0,1,1.62,1.89c7.1,10.49-7.66,29-2.73,33.23,3.58,3.07,14.73-5.28,17.08-2.44,2.21,2.68-6.48,11.77-3.92,15,1.94,2.44,7.65-1.79,12.81,1.36,2.57,1.57,2.42,3.4,6.27,9.27a60.27,60.27,0,0,0,6.82,8.72c9.21,9.08,28.22,8.23,30.53,3,.64-1.46-.45-2.25-.55-6.54a33.33,33.33,0,0,1,1.36-9c2.07-7.16,9.86-14,17.17-22.9,13.54-16.53,15.35-28,15.79-31.87.16-1.37.21-2.38.25-3.11.75-14.69-4.52-34.56-13.86-45.15-15.64-17.75-36-1.91-60.24-17.17-27.93-17.61-23.54-53-36.25-53.42C2321.62,972.76,2301.67,1015.34,2310.83,1049.24Z"/><path class="cls-47" d="M2347.82,1121.38c2.85-7.38,12.3-3.68,14.48,4.3s-3.35,18.36-11.29,18.78S2344,1131.3,2347.82,1121.38Z"/><path class="cls-48" d="M2538.93,1686.19a1,1,0,0,1-1-.89c-5.1-45.9,4.38-79.14,12.74-108.47,2-7.16,4-13.92,5.65-20.69,9.23-37.25,13.27-51.63,17.55-66.85,2.78-9.89,5.65-20.11,10.1-37.19a1,1,0,1,1,1.92.5c-4.45,17.1-7.33,27.33-10.11,37.23-4.28,15.21-8.31,29.58-17.54,66.79-1.68,6.8-3.62,13.58-5.67,20.76-8.31,29.15-17.74,62.2-12.68,107.71a1,1,0,0,1-.88,1.1Z"/><path class="cls-49" d="M2347.9,1107l-6.81,16.35s-6.81,19.63-15.81,12.27c-7.35-6-8.69-5.48-8.94-5.08,0,.08,0,.17-.06.17s-.2-3.91-.27-7.36a63.19,63.19,0,0,0-3.82,21.54c0,9.05,0,18.75,7.09,26.17.41.43,8.13,8.28,18.53,7.91,0,0,4.09-.15,19.63-7.36,0,0-21.26-8.18-22.35-11.18-3-8.15,7.41-15.75,11.45-35.16A71.16,71.16,0,0,0,2347.9,1107Z"/><path class="cls-50" d="M1875.89,1428.4c-15.45,10.81-23.74,25.5-28,34.87,11.36,26.66,37.13,76.18,90.46,112.67,87.44,59.83,215.66,61.84,305-6.39C2350,1488,2367.8,1331.72,2323,1264.78c-5.16-7.71-22.12-33-48.45-35.95-16.63-1.84-39.26,5-75,46.89C2125,1363,2151.32,1417.43,2107.3,1443,2041.29,1481.23,1943.2,1381.3,1875.89,1428.4Z"/><path class="cls-48" d="M2176.25,1606.24a1,1,0,0,1-.21-2c1-.23,104.56-24.07,151.18-152.68a1,1,0,1,1,1.87.68c-24.56,67.75-64.72,106-94.08,126.14-31.85,21.85-58.28,27.75-58.54,27.81Z"/><path class="cls-24" d="M2386.45,515.7l-15.12.12a108.72,108.72,0,0,0-5.33-19.09l13.11-7.38a7.1,7.1,0,0,0,2.74-9.86L2368.93,458a7.63,7.63,0,0,0-10.24-2.59l-13.27,7.44A115.88,115.88,0,0,0,2330.87,449l7.69-12.84a7.06,7.06,0,0,0-2.75-9.86l-22.51-12.41a7.73,7.73,0,0,0-10.3,2.68l-7.73,12.88a121.83,121.83,0,0,0-19.94-5V409.51a7.39,7.39,0,0,0-7.57-7.23l-26.18.06a7.45,7.45,0,0,0-7.59,7.28v14.94a123.54,123.54,0,0,0-20.07,5.15l-7.81-12.88a7.81,7.81,0,0,0-10.41-2.63l-22.84,12.65a7.12,7.12,0,0,0-2.8,10l7.82,12.88a119.31,119.31,0,0,0-14.81,14.14l-13.55-7.38a7.91,7.91,0,0,0-10.48,2.72l-13.26,21.92a7.08,7.08,0,0,0,2.81,10l13.44,7.29a110.41,110.41,0,0,0-5.46,19.41l-15.52.13a7.58,7.58,0,0,0-7.69,7.37V550.5a7.42,7.42,0,0,0,7.69,7.23l15.4-.16a108.76,108.76,0,0,0,5.39,19.42l-13.24,7.42a7.16,7.16,0,0,0-2.81,10L2139,616.1a7.82,7.82,0,0,0,10.48,2.53l13.15-7.4a116,116,0,0,0,14.95,14.09l-7.56,12.59a7,7,0,0,0,2.8,9.91L2195.7,660a7.9,7.9,0,0,0,10.41-2.83l7.48-12.48a122,122,0,0,0,20.4,4.88v14.29a7.29,7.29,0,0,0,7.59,7.14l26.18-.43a7.56,7.56,0,0,0,7.57-7.37V649a123.53,123.53,0,0,0,20.27-5.48L2303,655.7a7.64,7.64,0,0,0,10.3,2.49l22.51-12.83a7.14,7.14,0,0,0,2.75-9.91l-7.43-12.27a119.07,119.07,0,0,0,14.68-14.36l12.88,7a7.72,7.72,0,0,0,10.24-2.78l12.93-21.73a7,7,0,0,0-2.74-9.81l-12.91-7a110.24,110.24,0,0,0,5.26-19.3l15-.15a7.43,7.43,0,0,0,7.47-7.28V522.84A7.27,7.27,0,0,0,2386.45,515.7Zm-131.77-52.08c42.19-.23,76.25,32.26,76.25,72.57s-34.06,73.43-76.25,74c-42.38.56-76.87-31.93-76.87-72.56S2212.3,463.85,2254.68,463.62Z"/></g></g></g></g></svg>